<svg width="28" height="23" viewBox="0 0 28 23" fill="none" xmlns="http://www.w3.org/2000/svg">
<path d="M27.3602 3.4972C28 5.992 28 11.2 28 11.2C28 11.2 28 16.408 27.3602 18.9028C27.0046 20.2818 25.9644 21.3668 24.647 21.7336C22.2544 22.4 14 22.4 14 22.4C14 22.4 5.7498 22.4 3.353 21.7336C2.03 21.3612 0.9912 20.2776 0.6398 18.9028C4.17233e-08 16.408 0 11.2 0 11.2C0 11.2 4.17233e-08 5.992 0.6398 3.4972C0.9954 2.1182 2.0356 1.0332 3.353 0.6664C5.7498 -2.5034e-07 14 0 14 0C14 0 22.2544 -2.5034e-07 24.647 0.6664C25.97 1.0388 27.0088 2.1224 27.3602 3.4972V3.4972ZM11.2 16.1L19.6 11.2L11.2 6.3V16.1Z" fill="white"/>
</svg>
