<svg width="101" height="106" viewBox="0 0 101 106" fill="none" xmlns="http://www.w3.org/2000/svg">
<g filter="url(#filter0_f_1014_361)">
<path fill-rule="evenodd" clip-rule="evenodd" d="M54.7703 4.0564H55.7567H64.2793H64.6788L64.9657 4.33443L71.9101 11.0643H79.775H80.2224L80.517 11.4009L87.7484 19.6603L87.9926 19.9393V20.31V20.3103V20.3106V20.311V20.3116V20.3122V20.313V20.3139V20.3149V20.3161V20.3174V20.3187V20.3202V20.3218V20.3236V20.3254V20.3274V20.3294V20.3316V20.3339V20.3364V20.3389V20.3415V20.3443V20.3472V20.3501V20.3532V20.3564V20.3598V20.3632V20.3667V20.3704V20.3741V20.378V20.3819V20.386V20.3902V20.3945V20.3989V20.4034V20.408V20.4127V20.4175V20.4225V20.4275V20.4326V20.4379V20.4432V20.4486V20.4542V20.4598V20.4656V20.4714V20.4774V20.4834V20.4896V20.4958V20.5021V20.5086V20.5151V20.5218V20.5285V20.5353V20.5422V20.5493V20.5564V20.5636V20.5709V20.5783V20.5858V20.5934V20.6011V20.6088V20.6167V20.6247V20.6327V20.6408V20.6491V20.6574V20.6658V20.6743V20.6829V20.6915V20.7003V20.7092V20.7181V20.7271V20.7362V20.7454V20.7547V20.7641V20.7735V20.783V20.7927V20.8024V20.8121V20.822V20.832V20.842V20.8521V20.8623V20.8726V20.8829V20.8933V20.9039V20.9144V20.9251V20.9359V20.9467V20.9576V20.9686V20.9796V20.9907V21.0019V21.0132V21.0246V21.036V21.0475V21.0591V21.0707V21.0825V21.0942V21.1061V21.118V21.1301V21.1421V21.1543V21.1665V21.1788V21.1911V21.2036V21.216V21.2286V21.2412V21.2539V21.2667V21.2795V21.2924V21.3054V21.3184V21.3315V21.3446V21.3578V21.3711V21.3844V21.3978V21.4113V21.4248V21.4384V21.452V21.4657V21.4795V21.4933V21.5072V21.5212V21.5352V21.5492V21.5633V21.5775V21.5917V21.606V21.6203V21.6347V21.6492V21.6637V21.6782V21.6929V21.7075V21.7222V21.737V21.7518V21.7667V21.7816V21.7966V21.8116V21.8267V21.8418V21.857V21.8722V21.8875V21.9028V21.9181V21.9335V21.949V21.9645V21.98V21.9956V22.0113V22.027V22.0427V22.0585V22.0743V22.0901V22.106V22.122V22.1379V22.154V22.17V22.1861V22.2023V22.2184V22.2347V22.2509V22.2672V22.2836V22.2999V22.3163V22.3328V22.3493V22.3658V22.3823V22.3989V22.4156V22.4322V22.4489V22.4656V22.4824V22.4992V22.516V22.5328V22.5497V22.5666V22.5836V22.6006V22.6176V22.6346V22.6517V22.6687V22.6859V22.703V22.7202V22.7374V22.7546V22.7719V22.7891V22.8064V22.8238V22.8411V22.8585V22.8759V22.8933V22.9107V22.9282V22.9457V22.9632V22.9807V22.9983V23.0158V23.0334V23.051V23.0686V23.0863V23.104V23.1216V23.1393V23.157V23.1748V23.1925V23.2103V23.228V23.2458V23.2636V23.2815V23.2993V23.3171V23.335V23.3529V23.3707V23.3886V23.4065V23.4244V23.4424V23.4603V23.4782V23.4962V23.5141V23.5321V23.5501V23.5681V23.586V23.604V23.622V23.64V23.6581V23.6761V23.6941V23.7121V23.7301V23.7482V23.7662V23.7842V23.8023V23.8203V23.8383V23.8564V23.8744V23.8925V23.9105V23.9285V23.9466V23.9646V23.9826V24.0007V24.0187V24.0367V24.0547V24.0727V24.0907V24.1087V24.1267V24.1447V24.1627V24.1807V24.1987V24.2166V24.2346V24.2525V24.2705V24.2884V24.3063V24.3242V24.3421V24.36V24.3779V24.3957V24.4136V24.4314V24.4492V24.467V24.4848V24.5026V24.5204V24.5381V24.5559V24.5736V24.5913V24.609V24.6266V24.6443V24.6619V24.6795V24.6971V24.7147V24.7323V24.7498V24.7673V24.7848V24.8023V24.8197V24.8372V24.8546V24.8719V24.8893V24.9066V24.9239V24.9412V24.9585V24.9757V24.9929V25.0101V25.0273V25.0444V25.0615V25.0786V25.0956V25.1126V25.1296V25.1466V25.1635V25.1804V25.1973V25.2141V25.2309V25.2477V25.2644V25.2811V25.2978V25.3144V25.331V25.3476V25.3641V25.3806V25.3971V25.4135V25.4299V25.4463V25.4626V25.4788V25.4951V25.5113V25.5274V25.5436V25.5596V25.5757V25.5917V25.6076V25.6235V25.6394V25.6552V25.671V25.6868V25.7025V25.7181V25.7337V25.7493V25.7648V25.7803V25.7957V25.8111V25.8264V25.8417V25.857V25.8722V25.8873V25.9024V25.9174V25.9324V25.9474V25.9623V25.9771V25.9919V26.0066V26.0213V26.036V26.0505V26.0651V26.0795V26.0939V26.1083V26.1226V26.1369V26.1511V26.1652V26.1793V26.1933V26.2073V26.2212V26.235V26.2488V26.2625V26.2762V26.2898V26.3034V26.3168V26.3303V26.3436V26.3569V26.3702V26.3833V26.3965V26.4095V26.4225V26.4354V26.4483V26.461V26.4738V26.4864V26.499V26.5115V26.524V26.5364V26.5487V26.5609V26.5731V26.5852V26.5972V26.6092V26.6211V26.6329V26.6447V26.6563V26.6679V26.6795V26.6804L94.7021 33.9051L94.9657 34.1889V34.5763V44.3374V44.7375L94.6869 45.0245L91.1421 48.6745L94.7682 53.5065L94.9657 53.7695V54.0985V64.3601V64.7888L94.6523 65.0812L87.9926 71.2962V79.127V79.5153L87.7278 79.7994L80.4965 87.5583L80.204 87.8721H79.775H71.9301L64.9897 95.0785L64.6987 95.3806H64.2793H55.7567H54.7703V94.3943V68.615V67.6287H55.7567H70.5243V60.6059V37.7271L63.8598 30.8072H55.7567H54.7703V29.8209V5.04271V4.0564ZM72.4969 38.3157V59.6196H80.1117C80.5561 58.8634 81.3953 58.3534 82.3575 58.3534C83.7839 58.3534 84.9401 59.474 84.9401 60.8563C84.9401 62.2386 83.7839 63.3591 82.3575 63.3591C81.1954 63.3591 80.2126 62.6153 79.8884 61.5922H72.4969V68.615V69.6013H71.5106H56.743V93.408H63.8598L70.8002 86.2016L71.0912 85.8995H71.5106H79.3459L86.02 78.7386V71.8539H77.4664L72.9664 78.7068C73.0275 78.9202 73.0601 79.145 73.0601 79.3772C73.0601 80.7594 71.9038 81.88 70.4775 81.88C69.0511 81.88 67.8949 80.7594 67.8949 79.3772C67.8949 77.9949 69.0511 76.8743 70.4775 76.8743C70.8939 76.8743 71.2874 76.9698 71.6357 77.1395L76.1096 70.3262L76.4018 69.8812H76.9341H86.6176L92.993 63.9315V54.4274L89.3542 49.5785H82.0206C81.5763 50.3348 80.7369 50.8447 79.7747 50.8447C78.3484 50.8447 77.1921 49.7242 77.1921 48.3419C77.1921 46.9596 78.3484 45.8391 79.7747 45.8391C80.9368 45.8391 81.9195 46.5828 82.2439 47.6059H89.4301L92.993 43.9372V34.9636L86.5762 28.0541H76.9341H76.461L76.1649 27.6851L71.0072 21.2586C70.8362 21.2931 70.659 21.3113 70.4775 21.3113C69.0511 21.3113 67.8949 20.1907 67.8949 18.8084C67.8949 17.4261 69.0511 16.3056 70.4775 16.3056C71.9038 16.3056 73.0601 17.4261 73.0601 18.8084C73.0601 19.3053 72.9107 19.7684 72.653 20.1577L77.4072 26.0814H86.02V26.0795V26.0651V26.0505V26.036V26.0213V26.0066V25.9919V25.9771V25.9623V25.9474V25.9324V25.9174V25.9024V25.8873V25.8722V25.857V25.8417V25.8264V25.8111V25.7957V25.7803V25.7648V25.7493V25.7337V25.7181V25.7025V25.6868V25.671V25.6552V25.6394V25.6235V25.6076V25.5917V25.5757V25.5596V25.5436V25.5274V25.5113V25.4951V25.4788V25.4626V25.4463V25.4299V25.4135V25.3971V25.3806V25.3641V25.3476V25.331V25.3144V25.2978V25.2811V25.2644V25.2477V25.2309V25.2141V25.1973V25.1804V25.1635V25.1466V25.1296V25.1126V25.0956V25.0786V25.0615V25.0444V25.0273V25.0101V24.9929V24.9757V24.9585V24.9412V24.9239V24.9066V24.8893V24.8719V24.8546V24.8372V24.8197V24.8023V24.7848V24.7673V24.7498V24.7323V24.7147V24.6971V24.6795V24.6619V24.6443V24.6266V24.609V24.5913V24.5736V24.5559V24.5381V24.5204V24.5026V24.4848V24.467V24.4492V24.4314V24.4136V24.3957V24.3779V24.36V24.3421V24.3242V24.3063V24.2884V24.2705V24.2525V24.2346V24.2166V24.1987V24.1807V24.1627V24.1447V24.1267V24.1087V24.0907V24.0727V24.0547V24.0367V24.0187V24.0007V23.9826V23.9646V23.9466V23.9285V23.9105V23.8925V23.8744V23.8564V23.8383V23.8203V23.8023V23.7842V23.7662V23.7482V23.7301V23.7121V23.6941V23.6761V23.6581V23.64V23.622V23.604V23.586V23.5681V23.5501V23.5321V23.5141V23.4962V23.4782V23.4603V23.4424V23.4244V23.4065V23.3886V23.3707V23.3529V23.335V23.3171V23.2993V23.2815V23.2636V23.2458V23.228V23.2103V23.1925V23.1748V23.157V23.1393V23.1216V23.104V23.0863V23.0686V23.051V23.0334V23.0158V22.9983V22.9807V22.9632V22.9457V22.9282V22.9107V22.8933V22.8759V22.8585V22.8411V22.8238V22.8064V22.7891V22.7719V22.7546V22.7374V22.7202V22.703V22.6859V22.6687V22.6517V22.6346V22.6176V22.6006V22.5836V22.5666V22.5497V22.5328V22.516V22.4992V22.4824V22.4656V22.4489V22.4322V22.4156V22.3989V22.3823V22.3658V22.3493V22.3328V22.3163V22.2999V22.2836V22.2672V22.2509V22.2347V22.2184V22.2023V22.1861V22.17V22.154V22.1379V22.122V22.106V22.0901V22.0743V22.0585V22.0427V22.027V22.0113V21.9956V21.98V21.9645V21.949V21.9335V21.9181V21.9028V21.8875V21.8722V21.857V21.8418V21.8267V21.8116V21.7966V21.7816V21.7667V21.7518V21.737V21.7222V21.7075V21.6929V21.6782V21.6637V21.6492V21.6347V21.6203V21.606V21.5917V21.5775V21.5633V21.5492V21.5352V21.5212V21.5072V21.4933V21.4795V21.4657V21.452V21.4384V21.4248V21.4113V21.3978V21.3844V21.3711V21.3578V21.3446V21.3315V21.3184V21.3054V21.2924V21.2795V21.2667V21.2539V21.2412V21.2286V21.216V21.2036V21.1911V21.1788V21.1665V21.1543V21.1421V21.1301V21.118V21.1061V21.0942V21.0825V21.0707V21.0591V21.0475V21.036V21.0246V21.0132V21.0019V20.9907V20.9796V20.9686V20.9576V20.9467V20.9359V20.9251V20.9144V20.9039V20.8933V20.8829V20.8726V20.8623V20.8521V20.842V20.832V20.822V20.8121V20.8024V20.7927V20.783V20.7735V20.7641V20.7547V20.7454V20.7362V20.7271V20.7181V20.7092V20.7003V20.6915V20.6829V20.6808L79.3276 13.037H71.5106H71.1111L70.8242 12.7589L63.8798 6.02902H56.743V28.8346H64.2793H64.6987L64.9897 29.1367L71.9301 36.3431H81.5326C81.9275 35.4511 82.842 34.8263 83.9071 34.8263C85.3334 34.8263 86.4897 35.9468 86.4897 37.3291C86.4897 38.7114 85.3334 39.832 83.9071 39.832C82.8422 39.832 81.9279 39.2074 81.5328 38.3157H72.4969ZM31.7849 42.085V44.3605L33.4455 42.8048L41.1933 35.5465L43.0145 33.8404H40.519H32.7712H31.7849V34.8267V42.085ZM33.7575 35.8131H38.0235L33.7575 39.8095V35.8131ZM68.8809 58.3534V56.0779L67.2203 57.6336L59.4725 64.8919L57.6513 66.598H60.1468H67.8946H68.8809V65.6117V58.3534ZM66.9083 64.6254H62.6423L66.9083 60.6289V64.6254ZM45.168 95.6309H46.1543V94.6446V69.8664V68.8801H45.168H37.0648L30.4004 61.9602V39.0814V32.0586H45.168H46.1543V31.0723V5.29295V4.30663H45.168H36.6454H36.2259L35.9349 4.60875L28.9946 11.8152H21.1497H20.7207L20.4282 12.129L13.1968 19.8878L12.932 20.1719V20.5603V28.3911L6.27236 34.606L5.95898 34.8985V35.3271V45.5888V45.9177L6.15642 46.1808L9.78254 51.0127L6.23774 54.6627L5.95898 54.9498V55.3499V65.111V65.4983L6.22257 65.7822L12.932 73.0069V73.0078V73.0193V73.0309V73.0426V73.0544V73.0662V73.0781V73.09V73.1021V73.1142V73.1264V73.1386V73.1509V73.1633V73.1758V73.1883V73.2009V73.2135V73.2262V73.239V73.2519V73.2648V73.2778V73.2908V73.3039V73.3171V73.3303V73.3436V73.357V73.3704V73.3839V73.3975V73.4111V73.4247V73.4385V73.4523V73.4661V73.48V73.494V73.508V73.5221V73.5362V73.5504V73.5647V73.579V73.5933V73.6077V73.6222V73.6367V73.6513V73.6659V73.6806V73.6954V73.7102V73.725V73.7399V73.7548V73.7698V73.7849V73.8V73.8151V73.8303V73.8455V73.8608V73.8762V73.8915V73.907V73.9224V73.938V73.9535V73.9691V73.9848V74.0005V74.0162V74.032V74.0479V74.0637V74.0796V74.0956V74.1116V74.1276V74.1437V74.1598V74.176V74.1922V74.2084V74.2247V74.241V74.2574V74.2738V74.2902V74.3066V74.3231V74.3397V74.3562V74.3728V74.3895V74.4062V74.4229V74.4396V74.4564V74.4732V74.49V74.5069V74.5238V74.5407V74.5576V74.5746V74.5916V74.6087V74.6258V74.6429V74.66V74.6771V74.6943V74.7115V74.7288V74.746V74.7633V74.7806V74.798V74.8153V74.8327V74.8501V74.8675V74.885V74.9025V74.92V74.9375V74.955V74.9726V74.9901V75.0077V75.0254V75.043V75.0606V75.0783V75.096V75.1137V75.1314V75.1491V75.1669V75.1847V75.2024V75.2202V75.2381V75.2559V75.2737V75.2916V75.3094V75.3273V75.3452V75.3631V75.381V75.3989V75.4168V75.4348V75.4527V75.4706V75.4886V75.5066V75.5246V75.5425V75.5605V75.5785V75.5965V75.6145V75.6326V75.6506V75.6686V75.6866V75.7046V75.7227V75.7407V75.7587V75.7768V75.7948V75.8129V75.8309V75.8489V75.867V75.885V75.903V75.9211V75.9391V75.9571V75.9752V75.9932V76.0112V76.0292V76.0472V76.0652V76.0832V76.1012V76.1192V76.1372V76.1552V76.1731V76.1911V76.209V76.227V76.2449V76.2628V76.2807V76.2986V76.3165V76.3344V76.3523V76.3701V76.388V76.4058V76.4236V76.4414V76.4592V76.477V76.4948V76.5125V76.5302V76.5479V76.5656V76.5833V76.601V76.6186V76.6362V76.6539V76.6714V76.689V76.7066V76.7241V76.7416V76.7591V76.7765V76.794V76.8114V76.8288V76.8462V76.8635V76.8808V76.8981V76.9154V76.9327V76.9499V76.9671V76.9843V77.0014V77.0185V77.0356V77.0527V77.0697V77.0867V77.1037V77.1206V77.1375V77.1544V77.1713V77.1881V77.2049V77.2216V77.2384V77.2551V77.2717V77.2883V77.3049V77.3215V77.338V77.3545V77.3709V77.3873V77.4037V77.42V77.4363V77.4526V77.4688V77.485V77.5011V77.5173V77.5333V77.5493V77.5653V77.5813V77.5972V77.613V77.6288V77.6446V77.6603V77.676V77.6916V77.7072V77.7228V77.7383V77.7537V77.7691V77.7845V77.7998V77.8151V77.8303V77.8455V77.8606V77.8757V77.8907V77.9057V77.9206V77.9355V77.9503V77.965V77.9798V77.9944V78.009V78.0236V78.0381V78.0525V78.0669V78.0813V78.0956V78.1098V78.1239V78.1381V78.1521V78.1661V78.1801V78.1939V78.2078V78.2215V78.2352V78.2489V78.2625V78.276V78.2894V78.3028V78.3162V78.3295V78.3427V78.3558V78.3689V78.3819V78.3949V78.4078V78.4206V78.4333V78.446V78.4587V78.4712V78.4837V78.4961V78.5085V78.5208V78.533V78.5451V78.5572V78.5692V78.5812V78.593V78.6048V78.6165V78.6282V78.6398V78.6513V78.6627V78.674V78.6853V78.6965V78.7077V78.7187V78.7297V78.7406V78.7514V78.7622V78.7728V78.7834V78.7939V78.8044V78.8147V78.825V78.8352V78.8453V78.8553V78.8653V78.8751V78.8849V78.8946V78.9042V78.9138V78.9232V78.9326V78.9418V78.951V78.9602V78.9692V78.9781V78.987V78.9957V79.0044V79.013V79.0215V79.0299V79.0382V79.0464V79.0546V79.0626V79.0706V79.0784V79.0862V79.0939V79.1015V79.109V79.1164V79.1237V79.1309V79.138V79.145V79.1519V79.1588V79.1655V79.1721V79.1787V79.1851V79.1915V79.1977V79.2039V79.2099V79.2159V79.2217V79.2274V79.2331V79.2386V79.2441V79.2494V79.2546V79.2598V79.2648V79.2697V79.2745V79.2793V79.2839V79.2884V79.2928V79.2971V79.3012V79.3053V79.3093V79.3132V79.3169V79.3206V79.3241V79.3275V79.3308V79.334V79.3371V79.3401V79.343V79.3457V79.3484V79.3509V79.3533V79.3556V79.3578V79.3599V79.3619V79.3637V79.3654V79.367V79.3685V79.3699V79.3712V79.3723V79.3733V79.3743V79.375V79.3757V79.3763V79.3767V79.377V79.3772V79.748L13.1763 80.0269L20.4076 88.2863L20.7023 88.6229H21.1497H29.0145L35.959 95.3528L36.2459 95.6309H36.6454H45.168ZM28.4277 40.0677V61.3716H19.8694C19.3989 60.7554 18.6436 60.356 17.792 60.356C16.3656 60.356 15.2094 61.4765 15.2094 62.8588C15.2094 64.2411 16.3656 65.3616 17.792 65.3616C19.047 65.3616 20.0929 64.4942 20.3261 63.3442H28.9946L35.9349 70.5506L36.2259 70.8527H36.6454H44.1817V93.6582H37.0449L30.1004 86.9283L29.8136 86.6503H29.414H21.5971L14.9047 79.0065V79.0044V78.9957V78.987V78.9781V78.9692V78.9602V78.951V78.9418V78.9326V78.9232V78.9138V78.9042V78.8946V78.8849V78.8751V78.8653V78.8553V78.8453V78.8352V78.825V78.8147V78.8044V78.7939V78.7834V78.7728V78.7622V78.7514V78.7406V78.7297V78.7187V78.7077V78.6965V78.6853V78.674V78.6627V78.6513V78.6398V78.6282V78.6165V78.6048V78.593V78.5812V78.5692V78.5572V78.5451V78.533V78.5208V78.5085V78.4961V78.4837V78.4712V78.4587V78.446V78.4333V78.4206V78.4078V78.3949V78.3819V78.3689V78.3558V78.3427V78.3295V78.3162V78.3028V78.2894V78.276V78.2625V78.2489V78.2352V78.2215V78.2078V78.1939V78.1801V78.1661V78.1521V78.1381V78.1239V78.1098V78.0956V78.0813V78.0669V78.0525V78.0381V78.0236V78.009V77.9944V77.9798V77.965V77.9503V77.9355V77.9206V77.9057V77.8907V77.8757V77.8606V77.8455V77.8303V77.8151V77.7998V77.7845V77.7691V77.7537V77.7383V77.7228V77.7072V77.6916V77.676V77.6603V77.6446V77.6288V77.613V77.5972V77.5813V77.5653V77.5493V77.5333V77.5173V77.5011V77.485V77.4688V77.4526V77.4363V77.42V77.4037V77.3873V77.3709V77.3545V77.338V77.3215V77.3049V77.2883V77.2717V77.2551V77.2384V77.2216V77.2049V77.1881V77.1713V77.1544V77.1375V77.1206V77.1037V77.0867V77.0697V77.0527V77.0356V77.0185V77.0014V76.9843V76.9671V76.9499V76.9327V76.9154V76.8981V76.8808V76.8635V76.8462V76.8288V76.8114V76.794V76.7765V76.7591V76.7416V76.7241V76.7066V76.689V76.6714V76.6539V76.6362V76.6186V76.601V76.5833V76.5656V76.5479V76.5302V76.5125V76.4948V76.477V76.4592V76.4414V76.4236V76.4058V76.388V76.3701V76.3523V76.3344V76.3165V76.2986V76.2807V76.2628V76.2449V76.227V76.209V76.1911V76.1731V76.1552V76.1372V76.1192V76.1012V76.0832V76.0652V76.0472V76.0292V76.0112V75.9932V75.9752V75.9571V75.9391V75.9211V75.903V75.885V75.867V75.8489V75.8309V75.8129V75.7948V75.7768V75.7587V75.7407V75.7227V75.7046V75.6866V75.6686V75.6506V75.6326V75.6145V75.5965V75.5785V75.5605V75.5425V75.5246V75.5066V75.4886V75.4706V75.4527V75.4348V75.4168V75.3989V75.381V75.3631V75.3452V75.3273V75.3094V75.2916V75.2737V75.2559V75.2381V75.2202V75.2024V75.1847V75.1669V75.1491V75.1314V75.1137V75.096V75.0783V75.0606V75.043V75.0254V75.0077V74.9901V74.9726V74.955V74.9375V74.92V74.9025V74.885V74.8675V74.8501V74.8327V74.8153V74.798V74.7806V74.7633V74.746V74.7288V74.7115V74.6943V74.6771V74.66V74.6429V74.6258V74.6087V74.5916V74.5746V74.5576V74.5407V74.5238V74.5069V74.49V74.4732V74.4564V74.4396V74.4229V74.4062V74.3895V74.3728V74.3562V74.3397V74.3231V74.3066V74.2902V74.2738V74.2574V74.241V74.2247V74.2084V74.1922V74.176V74.1598V74.1437V74.1276V74.1116V74.0956V74.0796V74.0637V74.0479V74.032V74.0162V74.0005V73.9848V73.9691V73.9535V73.938V73.9224V73.907V73.8915V73.8762V73.8608V73.8455V73.8303V73.8151V73.8V73.7849V73.7698V73.7548V73.7399V73.725V73.7102V73.6954V73.6806V73.6659V73.6513V73.6367V73.6222V73.6077V73.6059H23.5175L26.7661 77.6536C26.3261 78.1024 26.0562 78.7092 26.0562 79.3772C26.0562 80.7594 27.2124 81.88 28.6388 81.88C30.0651 81.88 31.2214 80.7594 31.2214 79.3772C31.2214 78.005 30.082 76.8908 28.6701 76.8745L24.7598 72.0022L24.4637 71.6332H23.9906H14.3484L7.93161 64.7236V55.75L11.4945 52.0814H19.1618C19.6061 52.8376 20.4455 53.3476 21.4077 53.3476C22.834 53.3476 23.9903 52.2271 23.9903 50.8448C23.9903 49.4625 22.834 48.3419 21.4077 48.3419C20.2457 48.3419 19.2629 49.0857 18.9386 50.1087H11.5705L7.93161 45.2599V35.7558L14.3071 29.806H23.9906H24.5228L24.815 29.3611L29.5021 22.2232C29.7206 22.2814 29.9507 22.3125 30.1883 22.3125C31.6147 22.3125 32.7709 21.192 32.7709 19.8097C32.7709 18.4274 31.6147 17.3068 30.1883 17.3068C28.762 17.3068 27.6057 18.4274 27.6057 19.8097C27.6057 20.2504 27.7232 20.6644 27.9296 21.0241L23.4583 27.8334H14.9047V20.9487L21.5787 13.7878H29.414H29.8335L30.1245 13.4857L37.0648 6.27926H44.1817V30.086H29.414H28.4277V31.0723V38.0951H20.2611C19.9368 37.072 18.954 36.3283 17.792 36.3283C16.3656 36.3283 15.2094 37.4488 15.2094 38.8311C15.2094 40.2134 16.3656 41.3339 17.792 41.3339C18.7542 41.3339 19.5935 40.824 20.0379 40.0677H28.4277ZM46.6952 40.4683L47.6279 42.7065L50.8612 50.4653L53.0514 55.7213L51.2306 56.4801L49.2932 51.831H44.3079L42.469 56.4645L40.6355 55.7369L42.7215 50.4809L45.8008 42.7221L46.6952 40.4683ZM45.0908 49.8584H48.4712L46.7398 45.7035L45.0908 49.8584ZM56.3199 40.5828V56.1005H58.2925V40.5828H56.3199Z" fill="#A55227" fill-opacity="0.5"/>
</g>
<g filter="url(#filter1_d_1014_361)">
<g filter="url(#filter2_d_1014_361)">
<path fill-rule="evenodd" clip-rule="evenodd" d="M54.6144 0.0375977H55.6588H64.6626H65.0925L65.3979 0.340285L72.7322 7.61135H81.0332H81.514L81.8267 7.97662L89.4663 16.9029L89.7172 17.196V17.5819V17.5822V17.5825V17.583V17.5836V17.5843V17.5851V17.5861V17.5872V17.5885V17.5898V17.5913V17.5929V17.5947V17.5965V17.5985V17.6007V17.6029V17.6053V17.6078V17.6104V17.6131V17.616V17.6189V17.622V17.6253V17.6286V17.6321V17.6357V17.6394V17.6432V17.6471V17.6512V17.6553V17.6596V17.664V17.6686V17.6732V17.678V17.6828V17.6878V17.6929V17.6981V17.7034V17.7089V17.7144V17.7201V17.7258V17.7317V17.7377V17.7438V17.75V17.7563V17.7628V17.7693V17.7759V17.7827V17.7895V17.7965V17.8036V17.8107V17.818V17.8254V17.8329V17.8405V17.8482V17.856V17.8638V17.8718V17.8799V17.8881V17.8964V17.9048V17.9133V17.9219V17.9306V17.9394V17.9483V17.9573V17.9664V17.9756V17.9849V17.9942V18.0037V18.0133V18.0229V18.0327V18.0425V18.0525V18.0625V18.0726V18.0828V18.0931V18.1035V18.114V18.1246V18.1352V18.146V18.1568V18.1677V18.1788V18.1899V18.2011V18.2123V18.2237V18.2351V18.2467V18.2583V18.27V18.2817V18.2936V18.3056V18.3176V18.3297V18.3419V18.3542V18.3665V18.3789V18.3914V18.404V18.4167V18.4294V18.4423V18.4552V18.4681V18.4812V18.4943V18.5075V18.5208V18.5342V18.5476V18.5611V18.5747V18.5883V18.602V18.6158V18.6297V18.6436V18.6576V18.6717V18.6858V18.7V18.7143V18.7286V18.7431V18.7575V18.7721V18.7867V18.8014V18.8161V18.8309V18.8458V18.8608V18.8758V18.8908V18.906V18.9211V18.9364V18.9517V18.9671V18.9825V18.998V19.0136V19.0292V19.0449V19.0606V19.0764V19.0922V19.1081V19.1241V19.1401V19.1562V19.1723V19.1885V19.2047V19.221V19.2374V19.2537V19.2702V19.2867V19.3032V19.3198V19.3365V19.3532V19.37V19.3868V19.4036V19.4205V19.4375V19.4545V19.4715V19.4886V19.5057V19.5229V19.5401V19.5574V19.5747V19.5921V19.6095V19.6269V19.6444V19.6619V19.6795V19.6971V19.7148V19.7325V19.7502V19.768V19.7858V19.8037V19.8215V19.8395V19.8574V19.8754V19.8935V19.9115V19.9297V19.9478V19.966V19.9842V20.0024V20.0207V20.039V20.0574V20.0758V20.0942V20.1126V20.1311V20.1496V20.1681V20.1867V20.2052V20.2239V20.2425V20.2612V20.2799V20.2986V20.3173V20.3361V20.3549V20.3737V20.3926V20.4115V20.4304V20.4493V20.4682V20.4872V20.5062V20.5252V20.5442V20.5633V20.5823V20.6014V20.6205V20.6396V20.6588V20.6779V20.6971V20.7163V20.7355V20.7547V20.774V20.7932V20.8125V20.8318V20.8511V20.8704V20.8897V20.9091V20.9284V20.9478V20.9671V20.9865V21.0059V21.0253V21.0447V21.0641V21.0836V21.103V21.1224V21.1419V21.1613V21.1808V21.2003V21.2197V21.2392V21.2587V21.2782V21.2976V21.3171V21.3366V21.3561V21.3756V21.3951V21.4146V21.4341V21.4536V21.4731V21.4926V21.5121V21.5315V21.551V21.5705V21.59V21.6095V21.6289V21.6484V21.6679V21.6873V21.7068V21.7262V21.7457V21.7651V21.7845V21.8039V21.8233V21.8427V21.8621V21.8815V21.9008V21.9202V21.9395V21.9589V21.9782V21.9975V22.0168V22.036V22.0553V22.0745V22.0938V22.113V22.1322V22.1514V22.1705V22.1897V22.2088V22.2279V22.247V22.2661V22.2852V22.3042V22.3232V22.3422V22.3612V22.3801V22.3991V22.418V22.4369V22.4557V22.4745V22.4934V22.5121V22.5309V22.5496V22.5683V22.587V22.6057V22.6243V22.6429V22.6615V22.68V22.6985V22.717V22.7355V22.7539V22.7723V22.7906V22.809V22.8273V22.8455V22.8637V22.8819V22.9001V22.9182V22.9363V22.9544V22.9724V22.9904V23.0083V23.0262V23.0441V23.0619V23.0797V23.0974V23.1152V23.1328V23.1505V23.168V23.1856V23.2031V23.2206V23.238V23.2554V23.2727V23.29V23.3072V23.3244V23.3416V23.3587V23.3758V23.3928V23.4097V23.4267V23.4435V23.4603V23.4771V23.4938V23.5105V23.5271V23.5437V23.5602V23.5767V23.5931V23.6095V23.6258V23.6421V23.6583V23.6744V23.6905V23.7065V23.7225V23.7385V23.7543V23.7701V23.7859V23.8016V23.8172V23.8328V23.8483V23.8638V23.8792V23.8945V23.9098V23.925V23.9402V23.9553V23.9703V23.9853V24.0002V24.015V24.0298V24.0445V24.0591V24.0737V24.0882V24.1027V24.117V24.1313V24.1456V24.1597V24.1738V24.1879V24.2018V24.2157V24.2295V24.2433V24.257V24.2706V24.2841V24.2976V24.3109V24.3242V24.3375V24.3506V24.3637V24.3767V24.3897V24.4025V24.4153V24.428V24.4406V24.4532V24.4656V24.478V24.4819L96.8129 32.298L97.084 32.5967V33V43.5492V43.966L96.797 44.2682L93.0325 48.2336L96.8817 53.4807L97.084 53.7564V54.0984V65.1886V65.6354L96.7608 65.944L89.7172 72.6682V81.1476V81.552L89.4448 81.851L81.8052 90.2362L81.4945 90.5772H81.0332H72.7534L65.423 98.3635L65.1138 98.692H64.6626H55.6588H54.6144V97.6477V69.7869V68.7426H55.6588H71.2579V61.1312V36.3896L64.2115 28.905H55.6588H54.6144V27.8607V1.08193V0.0375977ZM73.3466 37.0197V60.0869H81.3767C81.8429 59.2577 82.7362 58.6969 83.7616 58.6969C85.2685 58.6969 86.4901 59.9079 86.4901 61.4018C86.4901 62.8957 85.2685 64.1067 83.7616 64.1067C82.526 64.1067 81.4822 63.2924 81.1465 62.1755H73.3466V69.7869V70.8313H72.3022H56.7031V96.6033H64.2115L71.5419 88.817L71.8511 88.4886H72.3022H80.5719L87.6285 80.7432V73.2657H78.6026L73.8386 80.6874C73.9042 80.9198 73.9393 81.1649 73.9393 81.4181C73.9393 82.9119 72.7178 84.123 71.2109 84.123C69.704 84.123 68.4825 82.9119 68.4825 81.4181C68.4825 79.9242 69.704 78.7131 71.2109 78.7131C71.6525 78.7131 72.0696 78.8171 72.4387 79.0018L77.1531 71.6572L77.4613 71.1771H78.032H88.2544L94.9953 64.7417V54.4404L91.145 49.1919H83.4182C82.952 50.0211 82.0587 50.5819 81.0332 50.5819C79.5263 50.5819 78.3048 49.3709 78.3048 47.877C78.3048 46.3831 79.5263 45.1721 81.0332 45.1721C82.2688 45.1721 83.3126 45.9864 83.6484 47.1032H91.2256L94.9953 43.1324V33.4033L88.2104 25.9296H78.032H77.5239L77.2103 25.5298L71.7778 18.6054C71.5949 18.6437 71.4053 18.6638 71.2109 18.6638C69.704 18.6638 68.4825 17.4528 68.4825 15.9589C68.4825 14.465 69.704 13.254 71.2109 13.254C72.7178 13.254 73.9393 14.465 73.9393 15.9589C73.9393 16.4986 73.7799 17.0013 73.5052 17.4234L78.54 23.8409H87.6285V23.8328V23.8172V23.8016V23.7859V23.7701V23.7543V23.7385V23.7225V23.7065V23.6905V23.6744V23.6583V23.6421V23.6258V23.6095V23.5931V23.5767V23.5602V23.5437V23.5271V23.5105V23.4938V23.4771V23.4603V23.4435V23.4267V23.4097V23.3928V23.3758V23.3587V23.3416V23.3244V23.3072V23.29V23.2727V23.2554V23.238V23.2206V23.2031V23.1856V23.168V23.1505V23.1328V23.1152V23.0974V23.0797V23.0619V23.0441V23.0262V23.0083V22.9904V22.9724V22.9544V22.9363V22.9182V22.9001V22.8819V22.8637V22.8455V22.8273V22.809V22.7906V22.7723V22.7539V22.7355V22.717V22.6985V22.68V22.6615V22.6429V22.6243V22.6057V22.587V22.5683V22.5496V22.5309V22.5121V22.4934V22.4745V22.4557V22.4369V22.418V22.3991V22.3801V22.3612V22.3422V22.3232V22.3042V22.2852V22.2661V22.247V22.2279V22.2088V22.1897V22.1705V22.1514V22.1322V22.113V22.0938V22.0745V22.0553V22.036V22.0168V21.9975V21.9782V21.9589V21.9395V21.9202V21.9008V21.8815V21.8621V21.8427V21.8233V21.8039V21.7845V21.7651V21.7457V21.7262V21.7068V21.6873V21.6679V21.6484V21.6289V21.6095V21.59V21.5705V21.551V21.5315V21.5121V21.4926V21.4731V21.4536V21.4341V21.4146V21.3951V21.3756V21.3561V21.3366V21.3171V21.2976V21.2782V21.2587V21.2392V21.2197V21.2003V21.1808V21.1613V21.1419V21.1224V21.103V21.0836V21.0641V21.0447V21.0253V21.0059V20.9865V20.9671V20.9478V20.9284V20.9091V20.8897V20.8704V20.8511V20.8318V20.8125V20.7932V20.774V20.7547V20.7355V20.7163V20.6971V20.6779V20.6588V20.6396V20.6205V20.6014V20.5823V20.5633V20.5442V20.5252V20.5062V20.4872V20.4682V20.4493V20.4304V20.4115V20.3926V20.3737V20.3549V20.3361V20.3173V20.2986V20.2799V20.2612V20.2425V20.2239V20.2052V20.1867V20.1681V20.1496V20.1311V20.1126V20.0942V20.0758V20.0574V20.039V20.0207V20.0024V19.9842V19.966V19.9478V19.9297V19.9115V19.8935V19.8754V19.8574V19.8395V19.8215V19.8037V19.7858V19.768V19.7502V19.7325V19.7148V19.6971V19.6795V19.6619V19.6444V19.6269V19.6095V19.5921V19.5747V19.5574V19.5401V19.5229V19.5057V19.4886V19.4715V19.4545V19.4375V19.4205V19.4036V19.3868V19.37V19.3532V19.3365V19.3198V19.3032V19.2867V19.2702V19.2537V19.2374V19.221V19.2047V19.1885V19.1723V19.1562V19.1401V19.1241V19.1081V19.0922V19.0764V19.0606V19.0449V19.0292V19.0136V18.998V18.9825V18.9671V18.9517V18.9364V18.9211V18.906V18.8908V18.8758V18.8608V18.8458V18.8309V18.8161V18.8014V18.7867V18.7721V18.7575V18.7431V18.7286V18.7143V18.7V18.6858V18.6717V18.6576V18.6436V18.6297V18.6158V18.602V18.5883V18.5747V18.5611V18.5476V18.5342V18.5208V18.5075V18.4943V18.4812V18.4681V18.4552V18.4423V18.4294V18.4167V18.404V18.3914V18.3789V18.3665V18.3542V18.3419V18.3297V18.3176V18.3056V18.2936V18.2817V18.27V18.2583V18.2467V18.2351V18.2237V18.2123V18.2011V18.1899V18.1788V18.1677V18.1568V18.146V18.1352V18.1246V18.114V18.1035V18.0931V18.0828V18.0726V18.0625V18.0525V18.0425V18.0327V18.0229V18.0133V18.0037V17.9942V17.9849V17.9756V17.9678L80.5524 9.70001H72.3022H71.8723L71.567 9.39732L64.2327 2.12626H56.7031V26.8163H64.6626H65.1138L65.423 27.1448L72.7534 34.9311H82.8808C83.2928 33.9555 84.265 33.27 85.3986 33.27C86.9055 33.27 88.1271 34.4811 88.1271 35.975C88.1271 37.4689 86.9055 38.6799 85.3986 38.6799C84.2653 38.6799 83.2934 37.9949 82.8812 37.0197H73.3466ZM30.3311 41.1148V43.5621L32.098 41.8688L40.2833 34.0245L42.1598 32.2262H39.5607H31.3754H30.3311V33.2705V41.1148ZM32.4198 34.3149H36.9616L32.4198 38.6675V34.3149ZM69.5268 58.6969V56.2496L67.7599 57.9429L59.5746 65.7872L57.6981 67.5855H60.2972H68.4825H69.5268V66.5412V58.6969ZM67.4381 65.4968H62.8962L67.4381 61.1442V65.4968ZM44.4721 98.9623H45.5164V97.9179V71.1392V70.0948H44.4721H35.9194L28.8729 62.6102V37.8687V30.2573H44.4721H45.5164V29.2129V1.35221V0.307878H44.4721H35.4682H35.0171L34.7078 0.636354L27.3775 8.42265H19.0976H18.6363L18.3256 8.76364L10.686 17.1489L10.4137 17.4478V17.8522V26.3317L3.37008 33.0559L3.04688 33.3645V33.8113V44.9015V45.2435L3.24916 45.5192L7.09838 50.7663L3.33382 54.7317L3.04688 55.0339V55.4507V65.9999V66.4032L3.31798 66.7018L10.4137 74.518V74.5219V74.5342V74.5467V74.5592V74.5719V74.5846V74.5973V74.6102V74.6231V74.6361V74.6492V74.6624V74.6756V74.6889V74.7023V74.7158V74.7293V74.7429V74.7566V74.7703V74.7841V74.798V74.812V74.826V74.8401V74.8543V74.8685V74.8828V74.8972V74.9117V74.9262V74.9407V74.9554V74.9701V74.9849V74.9997V75.0146V75.0296V75.0446V75.0597V75.0748V75.0901V75.1053V75.1207V75.1361V75.1515V75.1671V75.1826V75.1983V75.214V75.2297V75.2455V75.2614V75.2773V75.2933V75.3094V75.3255V75.3416V75.3578V75.3741V75.3904V75.4067V75.4232V75.4396V75.4561V75.4727V75.4893V75.506V75.5227V75.5395V75.5563V75.5732V75.5901V75.6071V75.6241V75.6412V75.6583V75.6754V75.6926V75.7099V75.7272V75.7445V75.7619V75.7793V75.7968V75.8143V75.8318V75.8494V75.867V75.8847V75.9024V75.9202V75.938V75.9558V75.9737V75.9916V76.0095V76.0275V76.0455V76.0636V76.0816V76.0998V76.1179V76.1361V76.1543V76.1726V76.1909V76.2092V76.2276V76.246V76.2644V76.2828V76.3013V76.3198V76.3384V76.3569V76.3755V76.3942V76.4128V76.4315V76.4502V76.469V76.4877V76.5065V76.5253V76.5442V76.563V76.5819V76.6008V76.6197V76.6387V76.6577V76.6767V76.6957V76.7147V76.7338V76.7528V76.7719V76.791V76.8102V76.8293V76.8485V76.8677V76.8869V76.9061V76.9253V76.9446V76.9638V76.9831V77.0024V77.0217V77.041V77.0603V77.0797V77.099V77.1184V77.1378V77.1572V77.1765V77.196V77.2154V77.2348V77.2542V77.2736V77.2931V77.3125V77.332V77.3515V77.3709V77.3904V77.4099V77.4293V77.4488V77.4683V77.4878V77.5073V77.5268V77.5463V77.5658V77.5853V77.6048V77.6243V77.6438V77.6632V77.6827V77.7022V77.7217V77.7412V77.7607V77.7801V77.7996V77.8191V77.8385V77.858V77.8774V77.8969V77.9163V77.9357V77.9551V77.9746V77.9939V78.0133V78.0327V78.0521V78.0714V78.0908V78.1101V78.1295V78.1488V78.1681V78.1873V78.2066V78.2259V78.2451V78.2643V78.2835V78.3027V78.3219V78.3411V78.3602V78.3793V78.3985V78.4175V78.4366V78.4557V78.4747V78.4937V78.5127V78.5316V78.5506V78.5695V78.5884V78.6073V78.6261V78.6449V78.6637V78.6825V78.7013V78.72V78.7387V78.7574V78.776V78.7946V78.8132V78.8318V78.8503V78.8688V78.8873V78.9057V78.9241V78.9425V78.9608V78.9791V78.9974V79.0157V79.0339V79.0521V79.0702V79.0883V79.1064V79.1244V79.1424V79.1604V79.1783V79.1962V79.2141V79.2319V79.2496V79.2674V79.2851V79.3027V79.3203V79.3379V79.3555V79.3729V79.3904V79.4078V79.4251V79.4425V79.4597V79.477V79.4941V79.5113V79.5284V79.5454V79.5624V79.5793V79.5963V79.6131V79.6299V79.6467V79.6634V79.68V79.6966V79.7132V79.7297V79.7461V79.7625V79.7789V79.7951V79.8114V79.8276V79.8437V79.8598V79.8758V79.8917V79.9076V79.9235V79.9393V79.955V79.9707V79.9863V80.0018V80.0173V80.0328V80.0482V80.0635V80.0787V80.0939V80.109V80.1241V80.1391V80.1541V80.1689V80.1837V80.1985V80.2132V80.2278V80.2423V80.2568V80.2712V80.2856V80.2998V80.3141V80.3282V80.3423V80.3563V80.3702V80.3841V80.3978V80.4116V80.4252V80.4388V80.4523V80.4657V80.4791V80.4923V80.5055V80.5187V80.5317V80.5447V80.5576V80.5704V80.5832V80.5958V80.6084V80.6209V80.6334V80.6457V80.658V80.6702V80.6823V80.6943V80.7063V80.7181V80.7299V80.7416V80.7532V80.7647V80.7762V80.7875V80.7988V80.81V80.8211V80.8321V80.843V80.8539V80.8646V80.8753V80.8859V80.8963V80.9067V80.917V80.9273V80.9374V80.9474V80.9573V80.9672V80.9769V80.9866V80.9962V81.0056V81.015V81.0243V81.0335V81.0425V81.0515V81.0604V81.0692V81.0779V81.0865V81.095V81.1034V81.1117V81.1199V81.128V81.136V81.1439V81.1517V81.1594V81.167V81.1745V81.1819V81.1891V81.1963V81.2034V81.2103V81.2172V81.2239V81.2306V81.2371V81.2435V81.2498V81.2561V81.2622V81.2681V81.274V81.2798V81.2854V81.291V81.2964V81.3018V81.307V81.3121V81.317V81.3219V81.3267V81.3313V81.3358V81.3402V81.3445V81.3487V81.3528V81.3567V81.3605V81.3642V81.3678V81.3713V81.3746V81.3778V81.3809V81.3839V81.3868V81.3895V81.3921V81.3946V81.397V81.3992V81.4013V81.4033V81.4052V81.4069V81.4085V81.41V81.4114V81.4126V81.4137V81.4147V81.4156V81.4163V81.4169V81.4173V81.4177V81.4179V81.8038L10.6646 82.097L18.3042 91.0232L18.6168 91.3885H19.0976H27.3987L34.733 98.6596L35.0383 98.9623H35.4682H44.4721ZM26.7843 38.913V61.9801H17.7614C17.2656 61.302 16.4601 60.8609 15.5507 60.8609C14.0438 60.8609 12.8223 62.0719 12.8223 63.5658C12.8223 65.0597 14.0438 66.2707 15.5507 66.2707C16.8842 66.2707 17.9943 65.3223 18.2321 64.0688H27.3775L34.7078 71.855L35.0171 72.1835H35.4682H43.4277V96.8736H35.8982L28.5639 89.6025L28.2585 89.2999H27.8286H19.5784L12.5023 81.032V81.0243V81.015V81.0056V80.9962V80.9866V80.9769V80.9672V80.9573V80.9474V80.9374V80.9273V80.917V80.9067V80.8963V80.8859V80.8753V80.8646V80.8539V80.843V80.8321V80.8211V80.81V80.7988V80.7875V80.7762V80.7647V80.7532V80.7416V80.7299V80.7181V80.7063V80.6943V80.6823V80.6702V80.658V80.6457V80.6334V80.6209V80.6084V80.5958V80.5832V80.5704V80.5576V80.5447V80.5317V80.5187V80.5055V80.4923V80.4791V80.4657V80.4523V80.4388V80.4252V80.4116V80.3978V80.3841V80.3702V80.3563V80.3423V80.3282V80.3141V80.2998V80.2856V80.2712V80.2568V80.2423V80.2278V80.2132V80.1985V80.1837V80.1689V80.1541V80.1391V80.1241V80.109V80.0939V80.0787V80.0635V80.0482V80.0328V80.0173V80.0018V79.9863V79.9707V79.955V79.9393V79.9235V79.9076V79.8917V79.8758V79.8598V79.8437V79.8276V79.8114V79.7951V79.7789V79.7625V79.7461V79.7297V79.7132V79.6966V79.68V79.6634V79.6467V79.6299V79.6131V79.5963V79.5793V79.5624V79.5454V79.5284V79.5113V79.4941V79.477V79.4597V79.4425V79.4251V79.4078V79.3904V79.3729V79.3555V79.3379V79.3203V79.3027V79.2851V79.2674V79.2496V79.2319V79.2141V79.1962V79.1783V79.1604V79.1424V79.1244V79.1064V79.0883V79.0702V79.0521V79.0339V79.0157V78.9974V78.9791V78.9608V78.9425V78.9241V78.9057V78.8873V78.8688V78.8503V78.8318V78.8132V78.7946V78.776V78.7574V78.7387V78.72V78.7013V78.6825V78.6637V78.6449V78.6261V78.6073V78.5884V78.5695V78.5506V78.5316V78.5127V78.4937V78.4747V78.4557V78.4366V78.4175V78.3985V78.3793V78.3602V78.3411V78.3219V78.3027V78.2835V78.2643V78.2451V78.2259V78.2066V78.1873V78.1681V78.1488V78.1295V78.1101V78.0908V78.0714V78.0521V78.0327V78.0133V77.9939V77.9746V77.9551V77.9357V77.9163V77.8969V77.8774V77.858V77.8385V77.8191V77.7996V77.7801V77.7607V77.7412V77.7217V77.7022V77.6827V77.6632V77.6438V77.6243V77.6048V77.5853V77.5658V77.5463V77.5268V77.5073V77.4878V77.4683V77.4488V77.4293V77.4099V77.3904V77.3709V77.3515V77.332V77.3125V77.2931V77.2736V77.2542V77.2348V77.2154V77.196V77.1765V77.1572V77.1378V77.1184V77.099V77.0797V77.0603V77.041V77.0217V77.0024V76.9831V76.9638V76.9446V76.9253V76.9061V76.8869V76.8677V76.8485V76.8293V76.8102V76.791V76.7719V76.7528V76.7338V76.7147V76.6957V76.6767V76.6577V76.6387V76.6197V76.6008V76.5819V76.563V76.5442V76.5253V76.5065V76.4877V76.469V76.4502V76.4315V76.4128V76.3942V76.3755V76.3569V76.3384V76.3198V76.3013V76.2828V76.2644V76.246V76.2276V76.2092V76.1909V76.1726V76.1543V76.1361V76.1179V76.0998V76.0816V76.0636V76.0455V76.0275V76.0095V75.9916V75.9737V75.9558V75.938V75.9202V75.9024V75.8847V75.867V75.8494V75.8318V75.8143V75.7968V75.7793V75.7619V75.7445V75.7272V75.7099V75.6926V75.6754V75.6583V75.6412V75.6241V75.6071V75.5901V75.5732V75.5563V75.5395V75.5227V75.506V75.4893V75.4727V75.4561V75.4396V75.4232V75.4067V75.3904V75.3741V75.3578V75.3416V75.3255V75.3094V75.2933V75.2773V75.2614V75.2455V75.2297V75.214V75.1983V75.1826V75.1671V75.159H21.5908L25.0362 79.5505C24.5687 80.0361 24.2816 80.6938 24.2816 81.4181C24.2816 82.9119 25.5031 84.123 27.01 84.123C28.5169 84.123 29.7384 82.9119 29.7384 81.4181C29.7384 79.9321 28.5298 78.726 27.034 78.7132L22.9205 73.47L22.6069 73.0703H22.0989H11.9204L5.13554 65.5965V55.8674L8.90526 51.8966H16.9855C17.4516 52.7259 18.345 53.2869 19.3706 53.2869C20.8775 53.2869 22.099 52.0758 22.099 50.5819C22.099 49.0881 20.8775 47.877 19.3706 47.877C18.135 47.877 17.0913 48.6912 16.7555 49.808H8.9858L5.13554 44.5595V34.2581L11.8764 27.8228H22.0989H22.6695L22.9777 27.3426L27.9168 19.6481C28.1492 19.7119 28.3941 19.746 28.647 19.746C30.1539 19.746 31.3754 18.535 31.3754 17.0411C31.3754 15.5472 30.1539 14.3362 28.647 14.3362C27.1401 14.3362 25.9185 15.5472 25.9185 17.0411C25.9185 17.5191 26.0436 17.9682 26.2631 18.3578L21.5283 25.7342H12.5023V18.2566L19.5589 10.5113H27.8286H28.2797L28.589 10.1828L35.9194 2.39654H43.4277V28.1686H27.8286H26.7843V29.2129V36.8243H18.1658C17.8301 35.7076 16.7863 34.8933 15.5507 34.8933C14.0438 34.8933 12.8223 36.1044 12.8223 37.5983C12.8223 39.0921 14.0438 40.3032 15.5507 40.3032C16.5762 40.3032 17.4696 39.7423 17.9357 38.913H26.7843ZM46.0858 39.3703L47.0766 41.8026L50.4924 50.1879L52.8063 55.8682L50.872 56.6562L48.823 51.6262H43.5713L41.6262 56.64L39.6789 55.8845L41.8827 50.2042L45.1358 41.8189L46.0858 39.3703ZM44.3816 49.5376H47.9721L46.1331 45.023L44.3816 49.5376ZM56.2518 39.4915V56.262H58.3405V39.4915H56.2518Z" fill="#E73D3D"/>
</g>
</g>
<defs>
<filter id="filter0_f_1014_361" x="3.04668" y="1.17632" width="94.831" height="97.3349" filterUnits="userSpaceOnUse" color-interpolation-filters="sRGB">
<feFlood flood-opacity="0" result="BackgroundImageFix"/>
<feBlend mode="normal" in="SourceGraphic" in2="BackgroundImageFix" result="shape"/>
<feGaussianBlur stdDeviation="1.43271" result="effect1_foregroundBlur_1014_361"/>
</filter>
<filter id="filter1_d_1014_361" x="-0.0339837" y="0" width="100.199" height="105.068" filterUnits="userSpaceOnUse" color-interpolation-filters="sRGB">
<feFlood flood-opacity="0" result="BackgroundImageFix"/>
<feColorMatrix in="SourceAlpha" type="matrix" values="0 0 0 0 0 0 0 0 0 0 0 0 0 0 0 0 0 0 127 0" result="hardAlpha"/>
<feOffset dy="3.03398"/>
<feGaussianBlur stdDeviation="1.51699"/>
<feComposite in2="hardAlpha" operator="out"/>
<feColorMatrix type="matrix" values="0 0 0 0 0 0 0 0 0 0 0 0 0 0 0 0 0 0 0.25 0"/>
<feBlend mode="normal" in2="BackgroundImageFix" result="effect1_dropShadow_1014_361"/>
<feBlend mode="normal" in="SourceGraphic" in2="effect1_dropShadow_1014_361" result="shape"/>
</filter>
<filter id="filter2_d_1014_361" x="0.0128913" y="0.0375977" width="100.105" height="104.993" filterUnits="userSpaceOnUse" color-interpolation-filters="sRGB">
<feFlood flood-opacity="0" result="BackgroundImageFix"/>
<feColorMatrix in="SourceAlpha" type="matrix" values="0 0 0 0 0 0 0 0 0 0 0 0 0 0 0 0 0 0 127 0" result="hardAlpha"/>
<feOffset dy="3.03398"/>
<feGaussianBlur stdDeviation="1.51699"/>
<feComposite in2="hardAlpha" operator="out"/>
<feColorMatrix type="matrix" values="0 0 0 0 0 0 0 0 0 0 0 0 0 0 0 0 0 0 0.25 0"/>
<feBlend mode="normal" in2="BackgroundImageFix" result="effect1_dropShadow_1014_361"/>
<feBlend mode="normal" in="SourceGraphic" in2="effect1_dropShadow_1014_361" result="shape"/>
</filter>
</defs>
</svg>
