<svg width="76" height="53" viewBox="0 0 76 53" fill="none" xmlns="http://www.w3.org/2000/svg">
<path d="M49 52H4H2.49024C1.94178 52 1.49567 51.5582 1.49029 51.0098L1.0099 2.00981C1.00445 1.45372 1.45373 1 2.00985 1H73.5C74.0523 1 74.5 1.44772 74.5 2V51C74.5 51.5523 74.0523 52 73.5 52H62" stroke="white" stroke-width="2" stroke-linecap="round"/>
<path d="M55.5 31.5V44.5M55.5 44.5V44.6492C55.5 44.8763 55.4227 45.0966 55.2809 45.2739L53.7191 47.2261C53.5773 47.4034 53.5 47.6237 53.5 47.8508V51C53.5 51.5523 53.9477 52 54.5 52H57C57.5523 52 58 51.5523 58 51V48.5V47.8508C58 47.6237 57.9227 47.4034 57.7809 47.2261L56 45L55.5 44.5Z" stroke="white" stroke-width="2"/>
<path d="M21.5 32L14.3954 28.9111C12.766 28.2026 12.8004 25.8798 14.4501 25.22L36.7639 16.2945C37.2367 16.1053 37.7639 16.1037 38.2379 16.2899L61.051 25.2522C62.703 25.9012 62.754 28.2205 61.132 28.9413L52.3878 32.8276C52.1321 32.9413 51.8554 33 51.5756 33H50.5M50.5 33V29.2071C50.5 28.7544 50.3201 28.3201 50 28V28L49.5858 27.5858C49.2107 27.2107 48.702 27 48.1716 27H48H47H33.5H29H28.5H28H27.4721C27.1616 27 26.8554 27.0723 26.5777 27.2111L26.2903 27.3549C26.098 27.451 25.9225 27.5775 25.7705 27.7295L25.7295 27.7705C25.5775 27.9225 25.451 28.098 25.3549 28.2903L25.2111 28.5777C25.0723 28.8554 25 29.1616 25 29.4721V34V35M50.5 33V35M50.5 35V37C50.5 38.1046 49.6046 39 48.5 39H27C25.8954 39 25 38.1046 25 37V35M50.5 35H25" stroke="white" stroke-width="2"/>
<circle cx="10.5" cy="10.5" r="3.5" stroke="white" stroke-width="2"/>
<line x1="19" y1="8" x2="32" y2="8" stroke="white" stroke-width="2" stroke-linecap="round"/>
<line x1="19" y1="13" x2="25" y2="13" stroke="white" stroke-width="2" stroke-linecap="round"/>
</svg>
