<svg width="896" height="22" viewBox="0 0 896 22" fill="none" xmlns="http://www.w3.org/2000/svg">
<path fill-rule="evenodd" clip-rule="evenodd" d="M646.281 21.9156C637.146 21.8549 629.156 21.7835 628.526 21.7568C627.896 21.7301 631.762 21.6643 637.117 21.6107C646.827 21.5132 646.812 21.5129 631.963 21.465C623.772 21.4386 611.659 21.3619 605.044 21.2946C596.721 21.21 600.958 21.1946 618.79 21.2447C659.544 21.3591 701.393 21.4602 706.774 21.4575C709.778 21.456 711.433 21.516 711.002 21.6107C710.537 21.7129 720.559 21.7662 740.212 21.7662C761.45 21.7662 769.907 21.7172 769.362 21.5973C768.877 21.4908 769.594 21.4417 771.299 21.4647C772.787 21.4849 774.778 21.4599 775.723 21.409C776.668 21.3583 785.173 21.2419 794.623 21.1504C804.074 21.0589 813.74 20.9223 816.102 20.8468C818.465 20.7715 820.397 20.7678 820.397 20.8386C820.397 21.0153 817.364 21.1182 799.778 21.5381C797.573 21.5907 793.449 21.7062 790.614 21.7946C784.506 21.985 671.086 22.0801 646.281 21.9156ZM297.477 21.7518C292.094 21.6651 292.248 21.6581 300.055 21.6351C308.277 21.611 310.762 21.6768 305.782 21.7869C304.364 21.8184 300.628 21.8025 297.477 21.7518ZM284.877 21.6752C283.617 21.6486 278.076 21.5819 272.563 21.5269C267.051 21.472 262.54 21.3755 262.54 21.3124C262.54 21.2494 264.214 21.2255 266.263 21.2596C269.117 21.3071 269.585 21.2833 268.267 21.1572C266.961 21.0325 267.786 20.9968 271.704 21.0091C276.405 21.0237 276.556 21.0356 273.422 21.1439L269.985 21.2626L274.186 21.2811C276.495 21.2912 278.557 21.2371 278.768 21.1607C278.984 21.0818 283.348 21.0721 288.886 21.1384C299.388 21.2638 299.206 21.3237 288.313 21.327C284.533 21.3282 282.729 21.3634 284.304 21.4053C287.01 21.4771 290.673 21.7921 288.256 21.7451C287.658 21.7334 286.137 21.702 284.877 21.6752ZM679.835 21.6513C675.924 21.6209 669.222 21.6208 664.944 21.6508C660.664 21.6807 663.865 21.7056 672.055 21.7057C680.245 21.706 683.746 21.6814 679.835 21.6513ZM695.824 21.6632C695.037 21.62 693.749 21.62 692.961 21.6632C692.174 21.7063 692.817 21.7417 694.392 21.7417C695.967 21.7417 696.612 21.7063 695.824 21.6632ZM782.882 21.5076C782.095 21.4644 780.806 21.4644 780.018 21.5076C779.231 21.5507 779.875 21.5861 781.45 21.5861C783.025 21.5861 783.67 21.5507 782.882 21.5076ZM790.922 21.5086C790.147 21.4659 788.6 21.4633 787.486 21.5028C786.371 21.5423 787.006 21.5772 788.896 21.5803C790.786 21.5834 791.698 21.5512 790.922 21.5086ZM300.628 21.3478C301.729 21.3086 303.535 21.3086 304.637 21.3478C305.739 21.3869 304.837 21.419 302.632 21.419C300.427 21.419 299.526 21.3869 300.628 21.3478ZM311.51 21.352C312.298 21.3088 313.587 21.3088 314.374 21.352C315.162 21.3951 314.517 21.4305 312.942 21.4305C311.367 21.4305 310.723 21.3951 311.51 21.352ZM92.211 21.095C91.8811 21.0225 85.8684 20.9775 78.8488 20.9951C66.112 21.0267 43.8034 20.7977 40.0485 20.5966C38.7919 20.5294 38.1538 20.347 38.305 20.0986C38.5628 19.6756 38.7403 19.6606 45.1815 19.5152C50.4531 19.3962 50.878 19.1444 45.7542 19.176C42.3429 19.197 42.0588 19.1631 42.3613 18.771C42.6499 18.3963 42.2937 18.3428 39.4975 18.3408C35.4917 18.3377 34.0805 18.1993 33.7643 17.7786C33.5593 17.5049 34.3027 17.4305 38.0599 17.349C44.1414 17.2169 43.8126 17.0017 37.3783 16.9032C32.2958 16.8254 25.9761 16.265 27.1857 15.9992C27.4858 15.9331 26.1845 15.8327 24.2933 15.7762C21.3208 15.6875 21.0756 15.6437 22.4834 15.4524C23.3792 15.3308 24.7939 15.2301 25.6267 15.2288C26.7676 15.227 26.7275 15.191 25.464 15.0824C24.2899 14.9816 25.629 14.9242 29.9418 14.8904C36.0209 14.8428 36.0954 14.8363 36.1985 14.3365C36.2569 14.0583 35.9167 13.8308 35.4447 13.8308C34.9728 13.8308 34.5856 13.6908 34.5856 13.5196C34.5856 13.289 33.77 13.203 31.4355 13.1873C28.6897 13.1687 28.6199 13.1574 30.8925 13.0981C34.2133 13.0116 40.2536 12.5882 38.1859 12.587C37.3119 12.5865 36.9064 12.4889 37.2592 12.364C38.1917 12.034 35.9236 11.856 28.385 11.6674C21.6404 11.4987 18.7342 11.3413 22.3666 11.3413C23.417 11.3413 24.2761 11.2362 24.2761 11.1079C24.2761 10.9263 22.7492 10.8745 17.4032 10.8745C9.99178 10.8745 7.68704 10.5773 14.8258 10.5421C17.4845 10.529 18.1397 10.4953 16.544 10.4534C15.1259 10.4164 13.9667 10.3257 13.9667 10.2518C13.9667 10.1779 12.9277 10.0727 11.6585 10.0179C10.3893 9.9633 9.63553 9.85609 9.98147 9.78C10.3286 9.70376 8.91845 9.57508 6.84853 9.49402C3.59646 9.36658 4.25284 9.34402 11.6757 9.32784C20.4971 9.30855 20.8248 9.1447 12.4512 8.94025C8.73861 8.84969 8.28613 8.79803 9.48547 8.60182C10.6241 8.41542 11.0926 8.40966 11.883 8.57211C12.6459 8.7291 13.2473 8.70576 14.5852 8.46739C16.1626 8.18654 16.0881 8.14811 13.7043 8.00807C11.4775 7.87737 12.0113 7.84314 17.4032 7.77001C23.0573 7.69345 23.4537 7.66529 21.2692 7.49522C19.9313 7.39097 16.5807 7.25902 13.8235 7.20208C5.254 7.02501 4.76029 6.83954 12.8212 6.82538L20.2669 6.81246L10.5302 6.31502L0.793434 5.81758L6.52092 5.73978L12.2484 5.66198L5.49914 5.45146C0.783126 5.30426 -0.769023 5.19955 0.344401 5.1037C1.22185 5.02823 2.96988 4.96055 4.22993 4.95324C6.50489 4.94001 6.50489 4.93908 4.25055 4.81942C2.60333 4.73213 4.01916 4.66212 9.40529 4.56456C16.1328 4.44288 16.3997 4.42499 12.2484 4.37442C9.72832 4.34377 7.1773 4.25321 6.5782 4.17339C5.9035 4.08345 10.6917 4.02355 19.1787 4.01592C29.7505 4.00643 32.1503 3.968 29.7173 3.84741C27.8913 3.7567 26.5671 3.57465 26.5671 3.41407C26.5671 3.18939 24.5648 3.08172 15.9862 2.84521C10.167 2.68479 6.37659 2.5281 7.56218 2.49714C9.2873 2.45202 9.39842 2.41327 8.1189 2.30327C6.94362 2.20213 7.2781 2.16463 9.38467 2.16105C10.9597 2.15841 13.0067 2.09103 13.9346 2.01137C15.8086 1.85048 15.3218 1.81112 9.2243 1.63078C7.56104 1.58161 5.92068 1.4422 5.57818 1.32083C5.05583 1.13629 7.03525 1.11202 17.7663 1.17208C27.2338 1.22498 30.1285 1.19915 28.8581 1.07312C27.4091 0.929192 27.4996 0.906321 29.4309 0.927172C33.2591 0.968872 34.0976 0.919079 32.2946 0.757257C31.1262 0.652386 32.7746 0.638693 37.4494 0.714314C46.0062 0.852949 45.5687 0.854507 64.9413 0.614265C76.8133 0.467072 94.2168 0.44311 131.953 0.521687C163.277 0.587036 192.643 0.564629 208.129 0.463802C259.166 0.130981 264.243 0.107641 263.513 0.210024C263.104 0.267439 257.434 0.352394 250.913 0.398764C244.393 0.444975 238.567 0.54549 237.969 0.621733C236.477 0.812027 335.114 0.797247 369.902 0.601973C389.856 0.489943 540.58 0.270706 593.016 0.277397C604.715 0.278954 655.739 0.475628 658.08 0.528219C660.013 0.571787 661.01 0.539579 660.59 0.447155C660.206 0.362822 660.408 0.293892 661.038 0.293892C661.668 0.293892 662.502 0.363911 662.891 0.449488C663.819 0.653475 668.046 0.65114 668.046 0.446686C668.046 0.270706 695.106 0.260283 714.867 0.428484C723.915 0.505505 726.883 0.482941 727.304 0.334034C727.608 0.226362 728.605 0.138294 729.52 0.138294C730.435 0.138294 730.865 0.208313 730.476 0.293892C730.086 0.379469 730.7 0.46147 731.84 0.476095C732.98 0.490723 734.685 0.518263 735.63 0.537401C736.575 0.556383 740.184 0.5805 743.649 0.590925C747.487 0.60244 749.363 0.660477 748.446 0.73921C746.96 0.867266 755.085 0.986454 778.014 1.17255C789.541 1.26606 794.756 1.52155 785.975 1.56231C783.172 1.57539 780.362 1.6023 779.732 1.62222C779.102 1.64214 773.69 1.67606 767.704 1.69753L756.822 1.7369L764.268 1.85795C768.363 1.92455 776.781 2.00094 782.975 2.02755C789.169 2.05431 794.483 2.13024 794.784 2.19637C795.085 2.2625 796.362 2.31665 797.622 2.31665C798.882 2.31665 799.636 2.37749 799.298 2.45202C798.956 2.52717 796.507 2.53013 793.789 2.45871C788.305 2.31462 783.078 2.27837 783.9 2.39009C785.004 2.54008 808.736 3.09557 810.379 3.00999C811.339 2.96004 812.382 3.0271 812.768 3.16356C813.254 3.33549 815.207 3.41314 819.503 3.43119L825.552 3.45655L819.252 3.54835C814.295 3.6207 813.609 3.66007 816.035 3.73305C817.732 3.78424 821.598 3.77397 824.626 3.71048C827.655 3.647 830.251 3.60919 830.394 3.62646C830.537 3.64389 829.833 3.81722 828.829 4.01188C827.621 4.2462 826.621 4.31342 825.867 4.21104C825.112 4.1085 823.514 4.11115 821.13 4.21913C814.73 4.5087 815.741 4.57389 825.752 4.5171C832.736 4.47758 835.349 4.51134 834.793 4.63379C834.309 4.73991 835.026 4.81164 836.653 4.8202C839.008 4.83265 827.751 5.14338 818.679 5.3164C816.789 5.3525 819.108 5.39358 823.834 5.40758C828.559 5.42174 833.198 5.50125 834.143 5.58418C835.568 5.70928 835.471 5.73589 833.57 5.73978C832.31 5.74242 830.506 5.81851 829.561 5.90891C828.305 6.02903 829.305 6.04677 833.281 5.97473C840.39 5.8462 841.892 5.98204 838.612 6.4563C837.16 6.66636 836.652 6.82896 837.448 6.82896C838.225 6.82896 838.542 6.89897 838.152 6.98455C837.763 7.07013 835.284 7.14124 832.644 7.14248C830.003 7.14388 827.07 7.21795 826.125 7.30726C824.889 7.42396 826.093 7.44107 830.42 7.36794C836.539 7.26478 838.855 7.47204 833.857 7.67571C831.344 7.7781 831.336 7.78432 833.57 7.93011C835.386 8.04837 835.023 8.06595 831.822 8.01429C827.211 7.93976 822.367 8.27523 825.611 8.44436C826.628 8.49726 828.384 8.54052 829.514 8.54052C830.646 8.54052 832.213 8.64555 832.998 8.77392C834.118 8.95721 834.121 9.00731 833.015 9.00731C832.234 9.00731 831.9 9.11125 832.267 9.24071C832.69 9.3907 832.222 9.47799 830.958 9.48499C829.324 9.49417 829.379 9.51767 831.279 9.62348C833.408 9.74204 833.342 9.7632 830.346 9.92378C828.573 10.0187 826.381 10.0965 825.477 10.0965C824.574 10.0965 823.834 10.1665 823.834 10.2521C823.834 10.3377 826.797 10.4145 830.42 10.4228L837.007 10.4379L832.711 10.6773C828.054 10.9369 827.209 11.2426 830.491 11.4811C831.632 11.5641 838.333 11.6816 845.383 11.7422C852.431 11.8028 858.199 11.9065 858.199 11.9728C858.199 12.0391 856.78 12.1636 855.048 12.2496C852.412 12.3803 853.252 12.4079 860.203 12.4181C864.916 12.4251 868.508 12.4978 868.508 12.586C868.508 12.6716 867.446 12.7416 866.149 12.7416C864.853 12.7416 864.096 12.8085 864.468 12.8904C864.84 12.9722 865.902 12.9998 866.826 12.9515C867.751 12.9035 868.508 12.9298 868.508 13.01C868.508 13.0905 866.059 13.2343 863.067 13.3296C858.448 13.4768 860.222 13.4955 874.808 13.4535L891.991 13.4039L877.099 13.6883C851.042 14.186 851.508 14.1731 854.762 14.3055C857.412 14.4134 857.438 14.4233 855.116 14.4376C851.623 14.4593 850.737 14.7277 853.886 14.8098C855.329 14.8476 854.363 14.887 851.707 14.8988C849.083 14.9105 846.763 14.9891 846.552 15.0734C846.343 15.1577 840.243 15.2841 832.998 15.3539C820.095 15.4784 819.924 15.485 824.658 15.6721C827.743 15.794 835.779 15.8506 846.851 15.8287C862.876 15.7968 864.335 15.8175 865.833 16.0961C867.261 16.3617 869.179 16.4044 881.728 16.4498C893.108 16.4909 896 16.5461 896 16.7221C896 16.8435 895.552 16.9427 895.005 16.9427C893.394 16.9427 873.846 17.4116 871.658 17.5026C867.52 17.675 869.884 17.877 876.24 17.8942C882.757 17.912 882.778 17.9135 878.245 18.0408C875.725 18.1116 869.539 18.1788 864.499 18.19C855.523 18.2102 843.349 18.4217 846.744 18.4987C849.976 18.572 838.163 18.7869 830.266 18.7984C823.382 18.8085 822.04 18.8594 819.724 19.1989L817.069 19.5879L821.884 19.6019L826.697 19.6159L822.781 19.7689C820.626 19.8529 817.921 19.888 816.767 19.8471C815.614 19.8062 814.67 19.8309 814.67 19.9022C814.67 19.9735 813.767 20.0639 812.665 20.1031C811.563 20.1421 812.98 20.1911 815.815 20.2117L820.97 20.2492L815.815 20.3671C798.967 20.7524 679.152 20.9651 640.554 20.6782C629.529 20.5962 615.267 20.5274 608.862 20.5254C600.641 20.5226 597.045 20.4642 596.634 20.327C596.197 20.1806 595.818 20.1773 595.098 20.3142C594.291 20.4676 570.503 20.6442 568.388 20.5126C566.32 20.3839 264.568 20.4009 244.212 20.5308C230.666 20.6173 215.202 20.7153 209.847 20.7486C204.492 20.7819 188.552 20.8457 174.427 20.8901C160.301 20.9346 143.548 21.0149 137.198 21.0684C118.838 21.2234 92.8651 21.2388 92.211 21.095ZM673.559 21.1932C674.385 21.1482 675.374 21.1538 675.754 21.2055C676.134 21.2571 675.458 21.2939 674.251 21.2872C672.917 21.2797 672.645 21.2428 673.559 21.1932ZM642.631 21.0376C643.457 20.9926 644.445 20.9982 644.826 21.0499C645.206 21.1015 644.53 21.1383 643.323 21.1316C641.988 21.1241 641.717 21.0872 642.631 21.0376ZM651.795 21.0376C652.621 20.9926 653.609 20.9982 653.99 21.0499C654.37 21.1015 653.694 21.1383 652.487 21.1316C651.152 21.1241 650.881 21.0872 651.795 21.0376ZM284.018 20.7228C285.436 20.6858 287.754 20.6858 289.173 20.7228C290.591 20.76 289.43 20.7903 286.595 20.7903C283.76 20.7903 282.6 20.76 284.018 20.7228ZM516.003 20.1082C515.227 20.0656 513.681 20.0629 512.566 20.1025C511.452 20.142 512.086 20.1768 513.977 20.1799C515.867 20.1831 516.778 20.1508 516.003 20.1082ZM809.777 20.1163C809.397 20.0646 808.408 20.059 807.582 20.104C806.668 20.1536 806.94 20.1905 808.274 20.198C809.482 20.2047 810.158 20.168 809.777 20.1163ZM639.08 19.84C639.47 19.7869 635.71 19.7356 630.722 19.7258C625.734 19.7161 608.509 19.6725 592.443 19.6291C576.377 19.5856 519.51 19.4961 466.073 19.43C412.634 19.3638 366.102 19.2622 362.667 19.2039C356.355 19.0968 348.8 19.2204 350.185 19.4082C350.982 19.5163 361.826 19.5453 422.623 19.6008C445.827 19.6221 460.711 19.6937 460.711 19.7841C460.711 19.8656 461.436 19.8946 462.323 19.8484C464.772 19.7208 502.919 19.7424 530.586 19.8871C557.636 20.0287 637.948 19.9937 639.08 19.84ZM669 19.9767C668.177 19.8649 648.542 19.8513 647.727 19.9621C647.351 20.013 652.114 20.0547 658.309 20.0547C664.504 20.0547 669.315 20.0197 669 19.9767ZM673.463 19.9607C673.083 19.909 672.094 19.9034 671.268 19.9484C670.354 19.998 670.626 20.0349 671.96 20.0424C673.167 20.0491 673.843 20.0124 673.463 19.9607ZM586.443 19.7891C587.868 19.7519 589.93 19.7533 591.025 19.7922C592.12 19.8311 590.954 19.8616 588.434 19.8599C585.914 19.8582 585.018 19.8263 586.443 19.7891ZM742.897 19.7824C743.188 19.7183 736.303 19.6657 727.597 19.6657C718.891 19.6657 711.381 19.7183 710.908 19.7824C710.435 19.8465 717.32 19.8991 726.207 19.8991C735.096 19.8991 742.606 19.8465 742.897 19.7824ZM748.804 19.7435C745.675 19.5608 744.794 19.5608 744.794 19.7435C744.794 19.8291 746.211 19.8941 747.944 19.8882C750.736 19.8784 750.833 19.8621 748.804 19.7435ZM539.536 19.6372C540.362 19.5922 541.35 19.5979 541.731 19.6495C542.111 19.7012 541.435 19.7379 540.228 19.7312C538.893 19.7237 538.622 19.6869 539.536 19.6372ZM546.357 19.6307C548.416 19.5961 551.509 19.5968 553.23 19.6322C554.952 19.6679 553.267 19.6962 549.487 19.6953C545.707 19.6945 544.299 19.6654 546.357 19.6307ZM315.124 19.2675C314.299 19.1983 313.157 19.1809 312.588 19.2286C312.018 19.2764 312.227 19.3722 313.05 19.4415C313.875 19.5107 315.017 19.5281 315.587 19.4804C316.156 19.4326 315.947 19.3368 315.124 19.2675ZM335.852 19.3985C335.852 19.3315 332.115 19.2849 327.547 19.2951C321.383 19.3088 320.127 19.3435 322.678 19.4297C327.076 19.5784 335.852 19.5576 335.852 19.3985ZM347.307 19.5062C347.307 19.34 341.122 19.1121 339.377 19.214C337.95 19.2974 338.171 19.3445 340.434 19.4382C343.932 19.5832 347.307 19.6165 347.307 19.5062ZM310.038 19.2678C309.67 19.1872 305.405 19.1222 300.56 19.1234C295.714 19.1248 292.352 19.1773 293.089 19.2401C295.128 19.4142 310.82 19.4399 310.038 19.2678ZM676.373 19.3302C675.597 19.2876 674.051 19.2849 672.936 19.3245C671.821 19.364 672.456 19.3988 674.346 19.402C676.236 19.4051 677.148 19.3729 676.373 19.3302ZM756.536 19.1668C755.119 19.1298 752.798 19.1298 751.381 19.1668C749.964 19.204 751.123 19.2344 753.958 19.2344C756.793 19.2344 757.953 19.204 756.536 19.1668ZM46.0406 17.0983C46.0406 17.0128 45.8138 16.9427 45.5354 16.9427C45.2571 16.9427 44.7118 17.0128 44.3224 17.0983C43.9329 17.1839 44.1608 17.2539 44.8275 17.2539C45.4942 17.2539 46.0406 17.1839 46.0406 17.0983ZM14.898 11.3906C15.7239 11.3456 16.7124 11.3512 17.0927 11.4029C17.473 11.4545 16.7972 11.4913 15.5898 11.4846C14.2553 11.4771 13.9838 11.4402 14.898 11.3906ZM829.251 8.75773C828.87 8.70607 827.882 8.70047 827.056 8.74544C826.142 8.79508 826.413 8.83195 827.748 8.83942C828.955 8.84611 829.631 8.80939 829.251 8.75773ZM24.2761 8.38492C24.2761 8.29935 23.7297 8.22933 23.0631 8.22933C22.3964 8.22933 22.1684 8.29935 22.5579 8.38492C22.9474 8.4705 23.4926 8.54052 23.771 8.54052C24.0493 8.54052 24.2761 8.4705 24.2761 8.38492ZM365.109 6.04055C366.341 5.76965 364.938 5.71224 363.366 5.96944C362.463 6.11726 362.376 6.20657 363.136 6.20657C363.805 6.20657 364.694 6.13188 365.109 6.04055ZM437.747 5.65747C438.427 5.71457 438.687 5.82644 438.324 5.90611C437.946 5.98936 440.578 6.05097 444.511 6.05097C448.464 6.05097 451.533 5.97877 451.775 5.88013C452.006 5.78614 454.616 5.67209 457.576 5.62682C464.948 5.51385 463.268 5.27423 455.517 5.33352C450.855 5.36915 449.256 5.32776 449.256 5.17154C449.256 4.90734 445.064 4.89442 444.287 5.15629C443.952 5.2691 443.672 5.23253 443.619 5.06931C443.57 4.91449 443.105 4.82331 442.587 4.86688C442.069 4.91029 440.786 4.80947 439.734 4.64267C437.492 4.28666 432.073 4.23049 432.073 4.563C432.073 4.73322 431.079 4.76465 427.911 4.69495C424.644 4.6229 423.868 4.65013 424.31 4.82129C424.621 4.94141 425.606 5.03243 426.499 5.02372C427.394 5.01501 428.829 5.11039 429.691 5.23549C431.05 5.43325 430.747 5.44912 427.369 5.35639C425.231 5.29773 422.623 5.21713 421.574 5.17729C420.524 5.13731 419.364 5.17107 418.995 5.25198C418.626 5.33305 420.931 5.44803 424.117 5.50747C427.302 5.56707 430.525 5.7071 431.277 5.81882C432.4 5.98531 432.994 5.97971 434.579 5.78786C435.642 5.65902 437.068 5.60036 437.747 5.65747ZM599.316 5.83516C599.316 5.70741 592.31 5.64315 591.752 5.76576C591.428 5.83703 592.997 5.89537 595.239 5.89537C597.481 5.89537 599.316 5.8683 599.316 5.83516ZM390.145 4.89831C389.161 4.54993 387.719 4.72404 388.065 5.14975C388.494 5.67909 388.522 5.68345 389.727 5.40307C390.338 5.26069 390.526 5.03352 390.145 4.89831ZM471.328 5.48211C470.553 5.43948 469.007 5.43683 467.892 5.47635C466.777 5.51587 467.412 5.55073 469.302 5.55384C471.192 5.55695 472.104 5.52474 471.328 5.48211ZM509.967 5.42065C502.621 5.24311 476.504 5.24887 474.457 5.42859C473.317 5.52863 479.875 5.5736 493.93 5.5624C508.424 5.55057 513.493 5.50592 509.967 5.42065ZM533.736 5.47277C532.003 5.43714 529.169 5.43714 527.436 5.47277C525.703 5.50841 527.121 5.5375 530.586 5.5375C534.051 5.5375 535.469 5.50841 533.736 5.47277ZM544.619 5.48118C543.832 5.43792 542.543 5.43792 541.755 5.48118C540.968 5.52428 541.612 5.5596 543.187 5.5596C544.762 5.5596 545.407 5.52428 544.619 5.48118ZM556.074 5.48118C555.287 5.43792 553.998 5.43792 553.21 5.48118C552.423 5.52428 553.067 5.5596 554.642 5.5596C556.217 5.5596 556.862 5.52428 556.074 5.48118ZM361.053 5.3525C361.053 5.12595 356.782 4.65138 354.784 4.65574C352.551 4.66072 352.562 4.67238 355.082 4.95775L357.702 5.25447L352.791 5.31438C348.478 5.36697 348.682 5.37755 354.466 5.40135C358.089 5.41629 361.053 5.39435 361.053 5.3525ZM366.47 5.3346C366.089 5.28295 365.101 5.27734 364.275 5.32231C363.361 5.37195 363.632 5.40882 364.967 5.41629C366.174 5.42298 366.85 5.38626 366.47 5.3346ZM436.655 5.27299C436.655 5.18741 437.202 5.11739 437.868 5.11739C438.535 5.11739 438.763 5.18741 438.374 5.27299C437.984 5.35857 437.439 5.42859 437.161 5.42859C436.882 5.42859 436.655 5.35857 436.655 5.27299ZM794.886 5.3346C794.505 5.28295 793.517 5.27734 792.691 5.32231C791.777 5.37195 792.048 5.40882 793.383 5.41629C794.59 5.42298 795.266 5.38626 794.886 5.3346ZM803.501 5.32558C802.714 5.28232 801.425 5.28232 800.637 5.32558C799.85 5.36868 800.494 5.404 802.069 5.404C803.644 5.404 804.289 5.36868 803.501 5.32558ZM311.486 5.17901C311.105 5.12735 310.117 5.12175 309.291 5.16672C308.377 5.21635 308.648 5.25323 309.983 5.2607C311.19 5.26739 311.866 5.23067 311.486 5.17901ZM343.608 5.08814C343.358 4.98653 342.47 4.87248 341.634 4.83467C340.78 4.79593 340.443 4.83778 340.864 4.93052C341.285 5.02294 340.476 5.12486 339.019 5.16283C337.171 5.21106 337.524 5.23673 340.242 5.25183C342.734 5.26567 343.903 5.20872 343.608 5.08814ZM379.953 4.96179C379.536 4.78333 379.747 4.6506 380.449 4.6506C381.122 4.6506 381.672 4.59225 381.672 4.52099C381.672 4.31887 377.014 4.41549 375.998 4.63877C375.294 4.79328 374.535 4.79795 372.63 4.65947C371.276 4.56113 369.612 4.52737 368.93 4.58463C367.556 4.70008 375.286 5.24031 378.598 5.26039C380.173 5.26988 380.503 5.19721 379.953 4.96179ZM596.452 5.11739C596.842 5.03181 596.614 4.96179 595.947 4.96179C595.281 4.96179 594.734 5.03181 594.734 5.11739C594.734 5.20297 594.961 5.27299 595.239 5.27299C595.518 5.27299 596.063 5.20297 596.452 5.11739ZM607.335 5.20437C607.335 5.16656 606.819 5.09249 606.189 5.03959C605.559 4.98669 605.044 5.01765 605.044 5.10821C605.044 5.19877 605.559 5.27299 606.189 5.27299C606.819 5.27299 607.335 5.24218 607.335 5.20437ZM774.885 5.17092C774.11 5.12828 772.563 5.12564 771.449 5.16516C770.334 5.20468 770.969 5.23953 772.859 5.24265C774.749 5.24576 775.661 5.21355 774.885 5.17092ZM781.14 5.17901C780.76 5.12735 779.771 5.12175 778.945 5.16672C778.031 5.21635 778.302 5.25323 779.637 5.2607C780.844 5.26739 781.52 5.23067 781.14 5.17901ZM328.406 4.96179C328.795 4.87621 328.567 4.8062 327.901 4.8062C327.234 4.8062 326.688 4.87621 326.688 4.96179C326.688 5.04737 326.914 5.11739 327.193 5.11739C327.471 5.11739 328.016 5.04737 328.406 4.96179ZM463.837 5.02341C463.457 4.97175 462.468 4.96615 461.642 5.01112C460.728 5.06075 461 5.09763 462.334 5.1051C463.541 5.11179 464.217 5.07507 463.837 5.02341ZM469.564 5.02341C469.184 4.97175 468.196 4.96615 467.37 5.01112C466.456 5.06075 466.727 5.09763 468.061 5.1051C469.269 5.11179 469.945 5.07507 469.564 5.02341ZM480.184 4.884C480.184 4.75563 480.7 4.6506 481.33 4.6506C481.96 4.6506 482.474 4.73804 482.473 4.8451C482.471 4.98949 484.986 5.02652 492.225 4.98918C498.124 4.95868 501.709 4.87933 501.295 4.7883C500.919 4.70568 499.701 4.67721 498.589 4.72513C497.478 4.77306 495.072 4.70615 493.245 4.57669C490.302 4.36819 489.879 4.36788 489.551 4.57373C489.136 4.83358 484.149 4.89255 483.048 4.6506C482.281 4.48178 477.557 4.43697 476.445 4.58805C475.33 4.73945 476.861 5.11739 478.589 5.11739C479.466 5.11739 480.184 5.01236 480.184 4.884ZM585.57 4.884C584.363 4.68639 584.615 4.6506 587.216 4.6506C588.972 4.6506 589.984 4.58401 589.579 4.495C589.19 4.40943 587.786 4.33941 586.457 4.33941C585.129 4.33941 584.411 4.2893 584.861 4.22816C585.312 4.16701 589.853 4.13853 594.952 4.16467C603.235 4.2073 604.146 4.18459 603.488 3.95166C603.003 3.78019 603.242 3.71546 604.183 3.7623C604.971 3.80166 605.488 3.91245 605.33 4.00876C605.172 4.10508 606.363 4.18381 607.975 4.18381C609.637 4.18381 610.6 4.11644 610.198 4.02821C609.809 3.94263 610.037 3.87262 610.703 3.87262C611.37 3.87262 611.917 3.94263 611.917 4.02821C611.917 4.28713 616.201 4.20248 616.976 3.92816C617.373 3.7875 617.526 3.64902 617.315 3.62039C617.104 3.59192 611.852 3.54944 605.644 3.5261C597.402 3.49514 594.225 3.53606 593.876 3.67812C593.613 3.78502 592.379 3.87262 591.135 3.87262C589.89 3.87262 589.19 3.8026 589.579 3.71702C589.993 3.62631 588.828 3.56142 586.783 3.56142C584.856 3.56142 583.279 3.63144 583.279 3.71702C583.279 3.8026 581.372 3.87262 579.041 3.87262C574.407 3.87262 574.999 4.12141 579.843 4.20948C581.996 4.24869 582.796 4.36773 583.068 4.6895C583.291 4.95184 584.121 5.11739 585.214 5.11739C586.669 5.11739 586.734 5.07445 585.57 4.884ZM699.547 4.75858C700.807 4.71393 699.389 4.68452 696.397 4.69308C693.405 4.70164 690.956 4.77041 690.956 4.84572C690.956 4.92118 692.051 4.9355 693.39 4.87777C695.252 4.79764 695.604 4.82254 694.888 4.98405C694.153 5.15007 694.305 5.15722 695.604 5.0175C696.513 4.91963 698.287 4.80324 699.547 4.75858ZM556.36 4.8062C555.97 4.72062 555.167 4.6506 554.574 4.6506C553.981 4.6506 553.496 4.72062 553.496 4.8062C553.496 4.89178 554.3 4.96179 555.282 4.96179C556.264 4.96179 556.749 4.89178 556.36 4.8062ZM434.364 4.6506C436.586 4.45564 437.801 4.45564 437.801 4.6506C437.801 4.73618 436.641 4.80511 435.224 4.80386C433.14 4.80184 432.975 4.77259 434.364 4.6506ZM542.041 4.58307C542.041 4.45673 543.407 4.3363 545.191 4.30533C547.718 4.26145 547.407 4.23594 543.616 4.17603C539.309 4.10803 538.891 4.13262 538.891 4.45377C538.891 4.64904 539.593 4.8062 540.466 4.8062C541.332 4.8062 542.041 4.70584 542.041 4.58307ZM577.552 4.67378C577.552 4.59567 575.479 4.52783 572.947 4.52301C570.413 4.51834 568.573 4.56549 568.856 4.62773C569.626 4.79671 577.552 4.83872 577.552 4.67378ZM220.729 4.495C221.118 4.40943 220.633 4.33941 219.651 4.33941C218.669 4.33941 217.865 4.40943 217.865 4.495C217.865 4.58058 218.35 4.6506 218.943 4.6506C219.537 4.6506 220.34 4.58058 220.729 4.495ZM448.11 4.48582C448.11 4.39527 447.538 4.36913 446.837 4.42794C446.137 4.48676 445.114 4.43837 444.564 4.32043C443.772 4.15082 443.559 4.16296 443.546 4.37831C443.535 4.5476 444.394 4.6506 445.819 4.6506C447.079 4.6506 448.11 4.57638 448.11 4.48582ZM464.147 4.5339C464.147 4.4698 462.908 4.41721 461.392 4.41721C459.878 4.41721 458.878 4.4698 459.17 4.5339C459.461 4.59801 460.701 4.6506 461.924 4.6506C463.147 4.6506 464.147 4.59801 464.147 4.5339ZM682.365 4.495C681.975 4.40943 680.527 4.34439 679.147 4.3503C676.728 4.36088 676.72 4.36601 678.928 4.495C682.081 4.67908 683.202 4.67908 682.365 4.495ZM766.559 4.495C766.559 4.40943 767.719 4.33832 769.136 4.33707C770.553 4.33567 772.487 4.26674 773.432 4.18381C774.699 4.07256 773.797 4.02432 769.995 4.00021C767.16 3.98216 763.036 3.93968 760.831 3.90591C758.626 3.87199 739.038 3.82376 717.302 3.79871C695.567 3.77365 680.875 3.8054 684.656 3.86935C688.436 3.93314 694.106 4.02899 697.256 4.0822C709.359 4.2865 724.039 4.33972 724.756 4.1821C725.154 4.09465 726.008 4.06758 726.654 4.12188C727.301 4.17603 729.035 4.13293 730.508 4.02588C731.98 3.91883 734.122 3.88211 735.267 3.94435C736.411 4.00658 741.053 4.06976 745.58 4.0847C750.107 4.09963 754.147 4.15767 754.56 4.21368C754.971 4.26954 757.066 4.27655 759.215 4.22925C762.323 4.16078 763.122 4.19501 763.122 4.39682C763.122 4.53639 763.896 4.6506 764.841 4.6506C765.786 4.6506 766.559 4.58058 766.559 4.495ZM800.256 4.4561C800.79 4.30051 801.058 4.30051 801.592 4.4561C802.311 4.66523 811.874 4.73182 812.775 4.5339C813.066 4.4698 811.035 4.44179 808.261 4.47182C805.109 4.5059 803.215 4.46202 803.215 4.35512C803.215 4.09559 797.827 4.15005 797.073 4.41721C796.271 4.70101 799.288 4.73789 800.256 4.4561ZM534.595 4.33941C534.206 4.25383 532.5 4.18879 530.805 4.1947C528.052 4.20451 527.968 4.22006 530.013 4.33941C533.196 4.52519 535.441 4.52519 534.595 4.33941ZM642.272 4.33941C641.883 4.25383 642.626 4.18381 643.923 4.18381C645.22 4.18381 646.281 4.25383 646.281 4.33941C646.281 4.52317 648.501 4.48162 650.387 4.26254C652.118 4.06167 646.236 3.70706 643.05 3.82018C641.82 3.8639 640.466 3.8236 640.043 3.73056C639.619 3.63751 638.5 3.56142 637.555 3.56142C636.61 3.56142 636.18 3.63689 636.6 3.729C637.128 3.84508 635.741 3.86359 632.085 3.78922C628.884 3.72402 626.808 3.74129 626.808 3.83325C626.808 3.91649 629.763 4.02619 633.376 4.07676C636.989 4.12733 640.124 4.24216 640.344 4.33194C640.564 4.42156 641.248 4.495 641.862 4.495C642.477 4.495 642.662 4.42499 642.272 4.33941ZM675.023 4.35154C674.137 4.27515 671.893 4.23874 670.038 4.27063C667.441 4.31529 666.53 4.25834 666.077 4.02277C665.753 3.85457 665.048 3.71702 664.512 3.71702C663.275 3.71702 664.607 4.22364 666.244 4.37597C666.92 4.43883 669.535 4.49018 672.055 4.49018C675.181 4.49018 676.125 4.44615 675.023 4.35154ZM271.704 4.20201C271.704 4.0167 267.275 3.86872 266.543 4.02946C266.224 4.09979 266.61 4.19268 267.401 4.23609C269.747 4.36461 271.704 4.34905 271.704 4.20201ZM286.595 4.18381C286.595 4.09823 286.111 4.02821 285.517 4.02821C284.924 4.02821 284.121 4.09823 283.731 4.18381C283.342 4.26939 283.828 4.33941 284.809 4.33941C285.791 4.33941 286.595 4.26939 286.595 4.18381ZM307.214 4.20077C307.214 3.96551 298.85 3.91541 295.79 4.13231C293.11 4.32229 293.426 4.33754 300.055 4.33847C303.993 4.33894 307.214 4.27701 307.214 4.20077ZM310.737 4.14102C310.595 3.95493 309.024 3.99103 308.531 4.19159C308.279 4.29428 308.692 4.3503 309.448 4.31607C310.204 4.28184 310.784 4.2031 310.737 4.14102ZM320.88 3.65089C320.923 3.57169 320.005 3.64171 318.836 3.80649C317.396 4.00954 317.119 4.1418 317.977 4.21695C319.124 4.31778 320.676 4.01514 320.88 3.65089ZM330.603 4.24496C332.934 4.12344 332.952 3.87262 330.629 3.87262C329.648 3.87262 329.142 3.8068 329.509 3.72651C329.874 3.64607 329.134 3.59083 327.864 3.6039C325.488 3.62817 325.118 4.00659 327.26 4.22038C328.664 4.36041 328.422 4.3587 330.603 4.24496ZM780.305 4.18381C780.305 4.09823 779.402 4.0293 778.3 4.03055C776.586 4.03257 776.545 4.05498 778.014 4.18381C780.175 4.37364 780.305 4.37364 780.305 4.18381ZM342.197 3.94155C339.266 3.77817 339.111 3.74191 341.051 3.67501C342.867 3.6123 342.746 3.5941 340.423 3.57947C338.765 3.56905 336.994 3.68217 336.236 3.84663C335.035 4.10803 335.373 4.13184 340.257 4.13122C345.539 4.1306 345.556 4.12888 342.197 3.94155ZM357.943 3.76214C358.404 3.43414 358.133 3.39213 356.043 3.46837C354.703 3.51723 351.545 3.56033 349.025 3.56407C345.317 3.56951 344.83 3.60157 346.471 3.73133C347.587 3.81956 348.213 3.95493 347.861 4.03226C347.509 4.10943 349.513 4.16638 352.312 4.15876C356.774 4.14662 357.471 4.09761 357.943 3.76214ZM391.602 3.78502C392.792 3.56407 393.441 3.54197 394.506 3.68652C396.413 3.94559 398.854 3.91914 398.854 3.63922C398.854 3.45733 397.399 3.40847 392.267 3.41812C388.644 3.42481 386.326 3.46573 387.113 3.50883C390.48 3.69353 388.083 3.87262 382.244 3.87262C375.43 3.87262 373.597 3.62071 379.667 3.51832C381.982 3.47942 380.925 3.44628 376.871 3.43072C373.212 3.41672 370.014 3.48005 369.582 3.57496C369.027 3.69679 368.464 3.69679 367.567 3.57496C366.882 3.48191 365.549 3.40583 364.604 3.40583C363.333 3.40583 363.221 3.45141 364.171 3.5804C364.877 3.67641 365.171 3.85597 364.821 3.97951C364.285 4.16934 366.188 4.19361 377.128 4.13682C387.988 4.08049 390.317 4.02401 391.602 3.78502ZM417.176 3.83372C417.185 3.65992 409.411 3.69244 408.604 3.86966C408.185 3.96162 409.746 4.00799 412.54 3.98636C415.087 3.9666 417.173 3.89782 417.176 3.83372ZM458.42 3.8818C458.42 3.8012 457.906 3.69228 457.278 3.63953C455.279 3.4718 424.337 3.54882 421.764 3.72791C420.456 3.81894 434.645 3.9792 446.106 4.00285C453.169 4.01732 458.42 3.96582 458.42 3.8818ZM508.655 3.79155C509.862 3.62755 507.695 3.572 497.011 3.49312C486.055 3.41205 474.457 3.61028 474.457 3.87853C474.457 4.0153 507.629 3.93081 508.655 3.79155ZM549.487 3.72262C542.097 3.633 536.542 3.69897 538.381 3.85457C539.004 3.90731 543.305 3.91789 547.937 3.87822L556.36 3.80602L549.487 3.72262ZM569.533 3.87262C569.533 3.78704 569.306 3.71702 569.028 3.71702C568.75 3.71702 568.204 3.78704 567.815 3.87262C567.425 3.95819 567.653 4.02821 568.32 4.02821C568.987 4.02821 569.533 3.95819 569.533 3.87262ZM595.307 3.87262C594.917 3.78704 595.403 3.71702 596.385 3.71702C597.366 3.71702 598.171 3.78704 598.171 3.87262C598.171 3.95819 597.686 4.02821 597.093 4.02821C596.499 4.02821 595.696 3.95819 595.307 3.87262ZM832.783 3.92194C833.609 3.87697 834.598 3.88257 834.978 3.93423C835.359 3.98589 834.683 4.02261 833.475 4.01592C832.141 4.00845 831.869 3.97158 832.783 3.92194ZM564.445 3.73165C564.092 3.65416 562.772 3.62724 561.514 3.67205C558.361 3.78393 558.645 3.87262 562.155 3.87262C563.767 3.87262 564.798 3.80913 564.445 3.73165ZM623.658 3.76961C622.871 3.72635 621.582 3.72635 620.794 3.76961C620.007 3.81271 620.651 3.84803 622.226 3.84803C623.801 3.84803 624.446 3.81271 623.658 3.76961ZM676.351 3.76961C675.564 3.72635 674.275 3.72635 673.487 3.76961C672.7 3.81271 673.344 3.84803 674.919 3.84803C676.494 3.84803 677.139 3.81271 676.351 3.76961ZM824.406 3.09463C824.796 3.00905 825.341 2.93904 825.62 2.93904C825.898 2.93904 826.125 3.00905 826.125 3.09463C826.125 3.18021 825.578 3.25023 824.912 3.25023C824.245 3.25023 824.017 3.18021 824.406 3.09463ZM854.548 3.14396C855.374 3.09899 856.362 3.10459 856.743 3.15625C857.123 3.20791 856.447 3.24463 855.24 3.23794C853.905 3.23047 853.634 3.19359 854.548 3.14396ZM386.251 1.18857C386.252 1.12447 375.815 1.08495 363.057 1.10082C347 1.12089 342.857 1.15683 349.598 1.21751C363.584 1.34355 386.249 1.32565 386.251 1.18857ZM397.708 1.13147C397.708 1.09879 395.261 1.08012 392.267 1.09023C387.588 1.10611 387.307 1.12353 390.263 1.21471C393.474 1.31383 397.708 1.26637 397.708 1.13147ZM338.429 1.12447C337.642 1.08121 336.353 1.08121 335.565 1.12447C334.778 1.16757 335.422 1.20289 336.997 1.20289C338.572 1.20289 339.217 1.16757 338.429 1.12447ZM234.758 0.792734C235.552 0.721781 230.852 0.659698 224.176 0.653009C217.57 0.646318 212.373 0.686462 212.627 0.742321C213.321 0.894806 233.111 0.939772 234.758 0.792734ZM758.326 0.654409C759.152 0.609442 760.141 0.615042 760.521 0.6667C760.901 0.718359 760.225 0.755081 759.018 0.74839C757.683 0.740921 757.412 0.704044 758.326 0.654409ZM674.609 0.511105C674.228 0.459446 673.24 0.453844 672.414 0.498812C671.5 0.548449 671.771 0.585325 673.106 0.592794C674.313 0.599483 674.989 0.562761 674.609 0.511105ZM276.509 0.177816C283.247 0.150431 294.587 0.150276 301.71 0.177662C308.833 0.205046 303.319 0.227451 289.459 0.227608C275.598 0.227764 269.771 0.205357 276.509 0.177816ZM379.172 0.104374C379.783 0.0214405 381.24 -0.0190144 382.409 0.0147495C383.984 0.0600281 383.696 0.0992393 381.298 0.165524C379.208 0.223562 378.455 0.201778 379.172 0.104374ZM734.271 0.187618C735.096 0.142651 736.085 0.148252 736.465 0.199911C736.846 0.251568 736.17 0.28829 734.962 0.281599C733.628 0.274132 733.357 0.237255 734.271 0.187618ZM388.272 0.0282879C389.697 -0.00889969 391.759 -0.00749969 392.854 0.0314007C393.949 0.0702991 392.783 0.100796 390.263 0.0990849C387.743 0.0973721 386.847 0.0654755 388.272 0.0282879ZM404.309 0.0282879C405.734 -0.00889969 407.796 -0.00749969 408.891 0.0314007C409.986 0.0702991 408.82 0.100796 406.3 0.0990849C403.78 0.0973721 402.884 0.0654755 404.309 0.0282879ZM439.826 0.025486C441.885 -0.00905609 444.977 -0.00843239 446.699 0.0270443C448.421 0.0626755 446.736 0.0909939 442.956 0.0900593C439.175 0.0892811 437.768 0.0601845 439.826 0.025486ZM456.431 0.0265751C458.172 -0.00905609 460.75 -0.00812149 462.159 0.0287552C463.568 0.0656319 462.143 0.094883 458.993 0.0937939C455.842 0.0925503 454.69 0.0623627 456.431 0.0265751ZM606.475 0.0310898C607.577 -0.00812149 609.383 -0.00812149 610.485 0.0310898C611.587 0.0701447 610.685 0.102198 608.48 0.102198C606.275 0.102198 605.373 0.0701447 606.475 0.0310898ZM625.376 0.0352898C626.164 -0.007967 627.453 -0.007967 628.24 0.0352898C629.028 0.0783901 628.383 0.11371 626.808 0.11371C625.233 0.11371 624.589 0.0783901 625.376 0.0352898Z" fill="#9C0808"/>
</svg>
