<svg xmlns="http://www.w3.org/2000/svg" width="48" height="45" fill="#e73d3d" xmlns:v="https://vecta.io/nano"><path d="M18.425 44.146v-2.089H9.872l-7.046-7.485V2.22h15.599V.131H.737v35.27l8.233 8.745h9.455zM29.612.779h9.455L47.3 9.524v35.27H29.612v-2.089h15.599V10.352l-7.046-7.485h-8.553V.779z"/><path d="M4.284 15.525L16.113 4.189H4.284v11.336zm2.089-9.247h4.542L6.373 10.63V6.277zM43.48 30.212L31.651 41.548H43.48V30.212zm-2.089 9.247h-4.542l4.542-4.353v4.353zM20.039 11.333l6.721 16.498-1.934.788-2.049-5.03h-5.252l-1.945 5.014-1.947-.755 6.407-16.514zM18.335 21.5h3.59l-1.839-4.515-1.751 4.515z" fill-rule="evenodd"/><path d="M30.205 11.454v16.771h2.089V11.454h-2.089z"/></svg>