<svg width="197" height="2" viewBox="0 0 197 2" fill="none" xmlns="http://www.w3.org/2000/svg">
<path fill-rule="evenodd" clip-rule="evenodd" d="M142.031 0.00703474C140.024 0.0120939 138.268 0.0180481 138.129 0.0202793C137.991 0.0224976 138.841 0.0279848 140.018 0.0324602C142.151 0.0405808 142.148 0.0406067 138.885 0.0446022C137.085 0.0468074 134.423 0.0532027 132.969 0.0588067C131.14 0.0658635 132.071 0.0671478 135.99 0.0629708C144.946 0.0534362 154.143 0.0450043 155.326 0.0452248C155.986 0.0453546 156.35 0.0403473 156.255 0.0324602C156.153 0.0239375 158.355 0.019488 162.674 0.019488C167.342 0.019488 169.2 0.0235742 169.081 0.0335758C168.974 0.0424488 169.132 0.046548 169.506 0.0446281C169.833 0.0429417 170.271 0.0450303 170.478 0.0492722C170.686 0.0535011 172.555 0.0632043 174.632 0.0708319C176.709 0.0784596 178.833 0.0898491 179.352 0.0961406C179.872 0.102419 180.296 0.102731 180.296 0.0968282C180.296 0.0820918 179.63 0.0735172 175.765 0.0385052C175.28 0.0341206 174.374 0.0244953 173.751 0.0171271C172.409 0.00124914 147.483 -0.00667686 142.031 0.00703474ZM65.3758 0.0206944C64.1926 0.0279199 64.2266 0.0285037 65.9422 0.0304236C67.7492 0.0324342 68.2952 0.026947 67.2009 0.0177627C66.8893 0.0151423 66.0681 0.0164655 65.3758 0.0206944ZM62.6066 0.0270767C62.3297 0.029295 61.112 0.03486 59.9004 0.0394392C58.689 0.0440184 57.6976 0.0520612 57.6976 0.0573279C57.6976 0.0625816 58.0657 0.0645664 58.5158 0.0617254C59.1431 0.0577689 59.2458 0.0597537 58.9563 0.0702612C58.6694 0.0806648 58.8506 0.0836355 59.7116 0.0826107C60.7447 0.0813913 60.778 0.0804054 60.0892 0.0713767L59.334 0.061479L60.2571 0.0599353C60.7646 0.0590921 61.2177 0.0636064 61.2641 0.0699757C61.3116 0.0765526 62.2705 0.0773569 63.4877 0.0718308C65.7957 0.0613752 65.7557 0.0563809 63.3618 0.0561085C62.5311 0.0560047 62.1346 0.053073 62.4807 0.0495835C63.0754 0.0435903 63.8804 0.0173347 63.3493 0.0212523C63.2178 0.0222252 62.8835 0.0248455 62.6066 0.0270767ZM149.406 0.0290744C148.546 0.031604 147.073 0.031617 146.133 0.0291134C145.192 0.0266227 145.896 0.0245472 147.696 0.0245342C149.496 0.0245083 150.265 0.0265578 149.406 0.0290744ZM152.919 0.0280756C152.746 0.0316819 152.463 0.0316819 152.29 0.0280756C152.117 0.0244823 152.259 0.0215376 152.605 0.0215376C152.951 0.0215376 153.093 0.0244823 152.919 0.0280756ZM172.052 0.0410478C171.879 0.044654 171.596 0.044654 171.422 0.0410478C171.25 0.0374545 171.391 0.0345098 171.737 0.0345098C172.083 0.0345098 172.225 0.0374545 172.052 0.0410478ZM173.819 0.0409699C173.648 0.0445243 173.309 0.0447449 173.064 0.0414499C172.819 0.038155 172.958 0.0352492 173.373 0.0349898C173.789 0.0347303 173.989 0.0374156 173.819 0.0409699ZM66.0681 0.0543702C66.3102 0.0576392 66.707 0.0576392 66.9492 0.0543702C67.1914 0.0511142 66.9932 0.0484419 66.5086 0.0484419C66.024 0.0484419 65.8259 0.0511142 66.0681 0.0543702ZM68.4596 0.05402C68.6328 0.0576262 68.916 0.0576262 69.089 0.05402C69.2622 0.0504267 69.1205 0.047482 68.7743 0.047482C68.4282 0.047482 68.2867 0.0504267 68.4596 0.05402ZM20.265 0.07545C20.1925 0.081495 18.8711 0.085244 17.3284 0.0837782C14.5293 0.0811448 9.62656 0.10024 8.80135 0.117C8.52519 0.122604 8.38496 0.137807 8.41819 0.158524C8.47484 0.193782 8.51386 0.195041 9.92941 0.207157C11.0879 0.21708 11.1813 0.238069 10.0553 0.235436C9.30559 0.233685 9.24316 0.236513 9.30962 0.269203C9.37305 0.30044 9.29476 0.304902 8.68026 0.305071C7.79991 0.30533 7.48977 0.316862 7.42029 0.351939C7.37523 0.374757 7.53861 0.380958 8.36432 0.387755C9.70083 0.398769 9.62858 0.416709 8.21454 0.424921C7.09755 0.431407 5.70868 0.478133 5.97453 0.500289C6.04048 0.505802 5.7545 0.514169 5.33888 0.518878C4.6856 0.526272 4.63173 0.52993 4.94112 0.545873C5.13798 0.556017 5.44889 0.56441 5.63191 0.564514C5.88264 0.56467 5.87383 0.567666 5.59616 0.576721C5.33812 0.585127 5.63241 0.589914 6.58022 0.592729C7.91622 0.596698 7.93258 0.597243 7.95524 0.63891C7.96808 0.662104 7.89331 0.681069 7.78959 0.681069C7.68588 0.681069 7.60079 0.692744 7.60079 0.707014C7.60079 0.726238 7.42155 0.733412 6.90849 0.734722C6.30507 0.736266 6.28971 0.737213 6.78917 0.742155C7.51897 0.749368 8.84641 0.784665 8.39202 0.784769C8.19994 0.784808 8.11082 0.792941 8.18835 0.803358C8.39327 0.830872 7.89482 0.845712 6.2381 0.861435C4.75584 0.875496 4.11717 0.888624 4.91544 0.888624C5.14629 0.888624 5.3351 0.89738 5.3351 0.908082C5.3351 0.923221 4.99953 0.927541 3.82464 0.927541C2.19587 0.927541 1.68936 0.952318 3.25822 0.955249C3.84252 0.956339 3.98651 0.959154 3.63584 0.962644C3.32418 0.965731 3.06941 0.973294 3.06941 0.979455C3.06941 0.985617 2.84108 0.994386 2.56215 0.998953C2.28322 1.00351 2.11757 1.01244 2.1936 1.01879C2.26988 1.02514 1.95998 1.03587 1.50508 1.04263C0.790384 1.05325 0.934634 1.05514 2.56593 1.05648C4.5046 1.05809 4.5766 1.07175 2.73636 1.0888C1.92046 1.09635 1.82102 1.10065 2.0846 1.11701C2.33483 1.13255 2.43779 1.13303 2.61149 1.11949C2.77915 1.1064 2.91132 1.10835 3.20535 1.12822C3.552 1.15164 3.53564 1.15484 3.01176 1.16651C2.52238 1.17741 2.63969 1.18026 3.82464 1.18636C5.06725 1.19274 5.15435 1.19509 4.67427 1.20927C4.38024 1.21796 3.64389 1.22896 3.03795 1.23371C1.15466 1.24847 1.04616 1.26394 2.81767 1.26512L4.454 1.26619L2.31419 1.30766L0.174371 1.34914L1.43309 1.35562L2.6918 1.36211L1.20853 1.37966C0.172105 1.39193 -0.169006 1.40066 0.075688 1.40865C0.268523 1.41494 0.652682 1.42059 0.929599 1.4212C1.42956 1.4223 1.42956 1.42238 0.934132 1.43235C0.572126 1.43963 0.88328 1.44547 2.06698 1.4536C3.54546 1.46375 3.60412 1.46524 2.6918 1.46945C2.13797 1.47201 1.57733 1.47956 1.44567 1.48621C1.2974 1.49371 2.34968 1.49871 4.21485 1.49934C6.53818 1.50013 7.06558 1.50334 6.53088 1.51339C6.1296 1.52095 5.83859 1.53613 5.83859 1.54952C5.83859 1.56825 5.39854 1.57723 3.51324 1.59694C2.23438 1.61032 1.40136 1.62338 1.66192 1.62596C2.04104 1.62972 2.06546 1.63296 1.78427 1.64213C1.52598 1.65056 1.59949 1.65368 2.06244 1.65398C2.40859 1.6542 2.85845 1.65982 3.06237 1.66646C3.47422 1.67988 3.36723 1.68316 2.0272 1.69819C1.66167 1.70229 1.30117 1.71391 1.2259 1.72403C1.11111 1.73942 1.54612 1.74144 3.90445 1.73643C5.9851 1.73202 6.62125 1.73418 6.34207 1.74468C6.02362 1.75668 6.0435 1.75859 6.46794 1.75685C7.30927 1.75338 7.49354 1.75753 7.0973 1.77102C6.84052 1.77976 7.20278 1.7809 8.23014 1.7746C10.1107 1.76304 10.0145 1.76291 14.272 1.78294C16.881 1.79521 20.7058 1.79721 28.9989 1.79066C35.8828 1.78521 42.3365 1.78708 45.7398 1.79548C56.9562 1.82323 58.072 1.82518 57.9116 1.81664C57.8217 1.81185 56.5756 1.80477 55.1424 1.80091C53.7095 1.79705 52.4291 1.78867 52.2977 1.78232C51.97 1.76645 73.647 1.76768 81.2922 1.78396C85.6776 1.7933 118.802 1.81158 130.325 1.81102C132.896 1.81089 144.11 1.7945 144.624 1.79011C145.049 1.78648 145.268 1.78917 145.176 1.79687C145.092 1.8039 145.136 1.80965 145.274 1.80965C145.413 1.80965 145.596 1.80381 145.682 1.79668C145.886 1.77967 146.815 1.77987 146.815 1.79691C146.815 1.81158 152.762 1.81245 157.104 1.79843C159.093 1.79201 159.745 1.79389 159.838 1.8063C159.904 1.81528 160.124 1.82262 160.325 1.82262C160.526 1.82262 160.62 1.81678 160.535 1.80965C160.449 1.80251 160.584 1.79568 160.834 1.79446C161.085 1.79324 161.46 1.79094 161.667 1.78935C161.875 1.78776 162.668 1.78575 163.43 1.78489C164.273 1.78393 164.685 1.77909 164.484 1.77252C164.157 1.76185 165.943 1.75191 170.982 1.7364C173.515 1.7286 174.661 1.7073 172.732 1.7039C172.116 1.70281 171.498 1.70057 171.36 1.69891C171.221 1.69725 170.032 1.69442 168.716 1.69263L166.325 1.68935L167.961 1.67925C168.861 1.6737 170.711 1.66733 172.072 1.66511C173.433 1.66288 174.601 1.65655 174.667 1.65104C174.734 1.64552 175.014 1.64101 175.291 1.64101C175.568 1.64101 175.734 1.63594 175.66 1.62972C175.584 1.62346 175.046 1.62321 174.449 1.62917C173.244 1.64118 172.095 1.6442 172.276 1.63489C172.518 1.62238 177.734 1.57607 178.095 1.58321C178.306 1.58737 178.535 1.58178 178.62 1.5704C178.727 1.55607 179.156 1.5496 180.1 1.54809L181.429 1.54598L180.045 1.53832C178.955 1.53229 178.805 1.52901 179.338 1.52293C179.711 1.51866 180.56 1.51951 181.226 1.52481C181.891 1.5301 182.462 1.53325 182.493 1.53181C182.525 1.53036 182.37 1.51591 182.149 1.49968C181.884 1.48014 181.664 1.47454 181.498 1.48307C181.333 1.49162 180.981 1.4914 180.458 1.4824C179.051 1.45826 179.273 1.45282 181.473 1.45756C183.008 1.46085 183.582 1.45804 183.46 1.44783C183.354 1.43898 183.511 1.433 183.869 1.43229C184.386 1.43125 181.913 1.40535 179.919 1.39092C179.503 1.38791 180.013 1.38449 181.052 1.38332C182.09 1.38214 183.11 1.37551 183.317 1.3686C183.63 1.35817 183.609 1.35595 183.191 1.35562C182.915 1.3554 182.518 1.34906 182.31 1.34152C182.034 1.33151 182.254 1.33003 183.128 1.33603C184.69 1.34675 185.02 1.33543 184.299 1.29589C183.98 1.27837 183.869 1.26482 184.044 1.26482C184.214 1.26482 184.284 1.25898 184.198 1.25185C184.113 1.24471 183.568 1.23878 182.988 1.23868C182.408 1.23856 181.763 1.23239 181.555 1.22494C181.283 1.21521 181.548 1.21378 182.499 1.21988C183.844 1.22848 184.353 1.2112 183.254 1.19422C182.702 1.18569 182.7 1.18517 183.191 1.17301C183.59 1.16315 183.511 1.16169 182.807 1.166C181.794 1.17221 180.729 1.14424 181.442 1.13014C181.666 1.12573 182.052 1.12212 182.3 1.12212C182.549 1.12212 182.893 1.11337 183.066 1.10267C183.312 1.08738 183.313 1.08321 183.069 1.08321C182.898 1.08321 182.824 1.07454 182.905 1.06375C182.998 1.05124 182.895 1.04397 182.617 1.04338C182.258 1.04262 182.27 1.04066 182.688 1.03184C183.156 1.02195 183.141 1.02019 182.483 1.0068C182.093 0.998888 181.612 0.992402 181.413 0.992402C181.214 0.992402 181.052 0.986564 181.052 0.979429C181.052 0.972295 181.703 0.965887 182.499 0.965199L183.947 0.963941L183.003 0.943977C181.979 0.922339 181.794 0.896849 182.515 0.876962C182.766 0.870048 184.238 0.860254 185.787 0.855195C187.336 0.850149 188.604 0.841496 188.604 0.83597C188.604 0.830444 188.292 0.820066 187.912 0.812893C187.332 0.801996 187.517 0.7997 189.044 0.798844C190.08 0.79826 190.87 0.792202 190.87 0.784847C190.87 0.777712 190.636 0.771875 190.351 0.771875C190.066 0.771875 189.9 0.766297 189.982 0.759473C190.064 0.75265 190.297 0.750354 190.5 0.754375C190.703 0.758384 190.87 0.756191 190.87 0.749498C190.87 0.742791 190.331 0.730805 189.674 0.722853C188.659 0.710581 189.049 0.709024 192.254 0.712527L196.03 0.716665L192.758 0.692952C187.031 0.651454 187.133 0.65253 187.849 0.641491C188.431 0.632501 188.437 0.631671 187.926 0.630478C187.159 0.628675 186.964 0.606298 187.656 0.599448C187.973 0.596296 187.761 0.593014 187.177 0.592028C186.601 0.591055 186.091 0.584504 186.044 0.577473C185.998 0.570442 184.658 0.559909 183.066 0.554085C180.23 0.543707 180.192 0.543162 181.233 0.527556C181.911 0.517399 183.677 0.512677 186.11 0.514507C189.632 0.517166 189.952 0.51544 190.282 0.492207C190.595 0.470064 191.017 0.466509 193.775 0.462721C196.276 0.459297 196.911 0.454692 196.911 0.44002C196.911 0.429902 196.813 0.421626 196.693 0.421626C196.339 0.421626 192.043 0.38254 191.562 0.374952C190.652 0.360579 191.172 0.343741 192.569 0.342301C194.001 0.340822 194.006 0.340692 193.009 0.330081C192.456 0.324179 191.096 0.318575 189.989 0.317641C188.016 0.315954 185.341 0.298325 186.087 0.291904C186.797 0.285794 184.201 0.267879 182.465 0.266919C180.952 0.266076 180.657 0.261834 180.148 0.233529L179.565 0.201099L180.623 0.199931L181.681 0.198764L180.82 0.186012C180.347 0.179007 179.752 0.176075 179.499 0.179487C179.245 0.182899 179.038 0.180836 179.038 0.174895C179.038 0.168954 178.839 0.161417 178.597 0.158148C178.355 0.154892 178.666 0.150805 179.289 0.149093L180.422 0.145967L179.289 0.136134C175.587 0.104015 149.255 0.0862818 140.773 0.110202C138.35 0.117039 135.216 0.122773 133.808 0.122941C132.001 0.123175 131.211 0.128039 131.121 0.139481C131.025 0.151688 130.941 0.15196 130.783 0.140544C130.606 0.127754 125.378 0.11303 124.913 0.124005C124.459 0.134733 58.1435 0.133319 53.6697 0.122487C50.6929 0.115275 47.2943 0.107102 46.1175 0.104326C44.9406 0.10155 41.4376 0.0962315 38.3333 0.0925344C35.2288 0.0888243 31.5471 0.0821307 30.1517 0.0776683C26.1167 0.064748 20.4087 0.0634637 20.265 0.07545ZM148.026 0.0672645C148.208 0.0710135 148.425 0.0705465 148.509 0.0662398C148.592 0.061933 148.444 0.0588715 148.178 0.0594293C147.885 0.060052 147.825 0.0631264 148.026 0.0672645ZM141.229 0.0802367C141.411 0.0839857 141.628 0.0835187 141.712 0.0792119C141.795 0.0749052 141.647 0.0718437 141.381 0.0724015C141.088 0.0730242 141.028 0.0760986 141.229 0.0802367ZM143.243 0.0802367C143.425 0.0839857 143.642 0.0835187 143.725 0.0792119C143.809 0.0749052 143.661 0.0718437 143.395 0.0724015C143.102 0.0730242 143.042 0.0760986 143.243 0.0802367ZM62.4178 0.106479C62.7295 0.109567 63.239 0.109567 63.5506 0.106479C63.8623 0.103379 63.6073 0.10085 62.9842 0.10085C62.3612 0.10085 62.1061 0.103379 62.4178 0.106479ZM113.401 0.15772C113.23 0.161274 112.89 0.161495 112.645 0.1582C112.4 0.154905 112.54 0.151999 112.955 0.151739C113.371 0.15148 113.571 0.154165 113.401 0.15772ZM177.962 0.157045C177.879 0.161352 177.662 0.161819 177.48 0.15807C177.279 0.153932 177.339 0.150857 177.632 0.150235C177.898 0.149677 178.046 0.152738 177.962 0.157045ZM140.449 0.180084C140.535 0.184507 139.708 0.188788 138.612 0.189605C137.516 0.190409 133.73 0.194042 130.2 0.197661C126.669 0.201293 114.171 0.208752 102.428 0.214265C90.6835 0.219778 80.4572 0.228249 79.7022 0.233114C78.3151 0.242039 76.6549 0.231739 76.9592 0.216081C77.1344 0.207066 79.5174 0.204653 92.8787 0.200022C97.9782 0.198245 101.249 0.192277 101.249 0.184741C101.249 0.177943 101.408 0.17553 101.603 0.179383C102.142 0.19002 110.525 0.188217 116.605 0.176153C122.55 0.164348 140.2 0.167267 140.449 0.180084ZM147.024 0.168681C146.843 0.178008 142.528 0.179137 142.349 0.1699C142.267 0.165659 143.313 0.162182 144.675 0.162182C146.036 0.162182 147.094 0.165101 147.024 0.168681ZM148.005 0.170017C147.922 0.174324 147.704 0.174791 147.523 0.171042C147.322 0.166904 147.382 0.16383 147.675 0.163207C147.94 0.162649 148.089 0.16571 148.005 0.170017ZM128.881 0.184326C129.194 0.187426 129.647 0.187309 129.888 0.184066C130.129 0.180823 129.872 0.17828 129.318 0.178423C128.765 0.178566 128.568 0.181225 128.881 0.184326ZM163.264 0.184883C163.328 0.190228 161.815 0.194612 159.902 0.194612C157.989 0.194612 156.338 0.190228 156.234 0.184883C156.13 0.179539 157.643 0.175154 159.597 0.175154C161.55 0.175154 163.201 0.179539 163.264 0.184883ZM164.562 0.188126C163.875 0.203356 163.681 0.203356 163.681 0.188126C163.681 0.180992 163.993 0.175569 164.374 0.176062C164.987 0.176879 165.009 0.178242 164.562 0.188126ZM118.572 0.196986C118.754 0.200735 118.971 0.200268 119.055 0.195962C119.138 0.191655 118.99 0.188593 118.724 0.189151C118.431 0.189774 118.371 0.192848 118.572 0.196986ZM120.071 0.197531C120.524 0.200411 121.204 0.200359 121.582 0.197401C121.96 0.194431 121.59 0.19207 120.759 0.192148C119.928 0.192213 119.619 0.194638 120.071 0.197531ZM69.2539 0.227808C69.0726 0.233581 68.8216 0.235034 68.6965 0.231051C68.5714 0.227069 68.6172 0.219078 68.7982 0.213305C68.9795 0.207533 69.2305 0.20608 69.3556 0.210062C69.4807 0.214045 69.4349 0.222036 69.2539 0.227808ZM73.8092 0.216886C73.8092 0.222477 72.988 0.226355 71.984 0.225512C70.6294 0.224371 70.3535 0.221478 70.9141 0.214291C71.8806 0.20189 73.8092 0.203628 73.8092 0.216886ZM76.3266 0.207909C76.3266 0.221763 74.9674 0.240767 74.584 0.232271C74.2704 0.225318 74.3189 0.221387 74.8161 0.213578C75.585 0.201488 76.3266 0.198712 76.3266 0.207909ZM68.1361 0.227782C68.0553 0.234502 67.1181 0.239924 66.0532 0.239821C64.9883 0.239704 64.2495 0.235332 64.4114 0.230091C64.8595 0.215576 68.3081 0.213435 68.1361 0.227782ZM148.645 0.22258C148.474 0.226135 148.134 0.226355 147.889 0.22306C147.644 0.219766 147.784 0.21686 148.199 0.2166C148.615 0.216341 148.815 0.219026 148.645 0.22258ZM166.262 0.236201C165.95 0.239289 165.44 0.239289 165.129 0.236201C164.817 0.233101 165.072 0.230571 165.695 0.230571C166.318 0.230571 166.573 0.233101 166.262 0.236201ZM10.1182 0.408653C10.1182 0.415788 10.0684 0.421626 10.0072 0.421626C9.94602 0.421626 9.82619 0.415788 9.7406 0.408653C9.65501 0.401519 9.7051 0.395681 9.85162 0.395681C9.99813 0.395681 10.1182 0.401519 10.1182 0.408653ZM3.27408 0.884512C3.45559 0.888261 3.67284 0.887794 3.75642 0.883487C3.84 0.87918 3.69147 0.876119 3.42614 0.876677C3.13286 0.8773 3.07319 0.880374 3.27408 0.884512ZM182.242 1.10401C182.159 1.10832 181.941 1.10879 181.76 1.10504C181.559 1.1009 181.619 1.09783 181.912 1.0972C182.177 1.09665 182.326 1.09971 182.242 1.10401ZM5.3351 1.1351C5.3351 1.14223 5.21502 1.14807 5.0685 1.14807C4.92199 1.14807 4.87189 1.14223 4.95749 1.1351C5.04308 1.12796 5.16291 1.12212 5.22408 1.12212C5.28526 1.12212 5.3351 1.12796 5.3351 1.1351ZM80.2389 1.33055C80.5098 1.35313 80.2014 1.35792 79.856 1.33648C79.6574 1.32415 79.6383 1.31671 79.8054 1.31671C79.9525 1.31671 80.1478 1.32293 80.2389 1.33055ZM96.2025 1.36249C96.352 1.35772 96.4091 1.3484 96.3293 1.34176C96.2463 1.33482 96.8245 1.32968 97.689 1.32968C98.5578 1.32968 99.2322 1.3357 99.2853 1.34392C99.3361 1.35176 99.9096 1.36127 100.56 1.36504C102.18 1.37446 101.811 1.39444 100.108 1.38949C99.0832 1.38652 98.7317 1.38997 98.7317 1.403C98.7317 1.42502 97.8106 1.4261 97.6397 1.40427C97.5661 1.39486 97.5045 1.39791 97.4929 1.41152C97.4821 1.42443 97.3799 1.43203 97.2661 1.4284C97.1523 1.42478 96.8703 1.43318 96.6392 1.44709C96.1463 1.47677 94.9556 1.48145 94.9556 1.45373C94.9556 1.43954 94.7371 1.43692 94.0407 1.44273C93.3228 1.44874 93.1523 1.44647 93.2495 1.4322C93.3177 1.42218 93.5342 1.41459 93.7306 1.41532C93.9272 1.41605 94.2426 1.4081 94.4319 1.39767C94.7308 1.38118 94.6641 1.37985 93.9217 1.38759C93.4519 1.39248 92.8787 1.3992 92.6481 1.40252C92.4175 1.40585 92.1625 1.40304 92.0814 1.39629C92.0004 1.38953 92.5069 1.37995 93.207 1.37499C93.9071 1.37002 94.6152 1.35835 94.7806 1.34903C95.0273 1.33515 95.158 1.33562 95.5061 1.35161C95.7398 1.36236 96.0532 1.36725 96.2025 1.36249ZM131.71 1.34767C131.71 1.35832 130.17 1.36368 130.048 1.35346C129.977 1.34752 130.321 1.34265 130.814 1.34265C131.307 1.34265 131.71 1.34491 131.71 1.34767ZM85.741 1.42578C85.5248 1.45482 85.2078 1.44031 85.2839 1.40481C85.3783 1.36068 85.3843 1.36032 85.6491 1.38369C85.7836 1.39556 85.8249 1.4145 85.741 1.42578ZM103.583 1.3771C103.412 1.38066 103.072 1.38088 102.827 1.37758C102.582 1.37429 102.722 1.37138 103.137 1.37112C103.553 1.37087 103.753 1.37355 103.583 1.3771ZM112.074 1.38223C110.46 1.39703 104.72 1.39655 104.27 1.38157C104.02 1.37323 105.461 1.36948 108.55 1.37041C111.735 1.3714 112.849 1.37512 112.074 1.38223ZM117.298 1.37788C116.917 1.38085 116.294 1.38085 115.913 1.37788C115.532 1.37491 115.844 1.37249 116.605 1.37249C117.367 1.37249 117.679 1.37491 117.298 1.37788ZM119.689 1.37718C119.516 1.38079 119.233 1.38079 119.06 1.37718C118.887 1.37359 119.028 1.37064 119.375 1.37064C119.721 1.37064 119.863 1.37359 119.689 1.37718ZM122.207 1.37718C122.034 1.38079 121.751 1.38079 121.577 1.37718C121.404 1.37359 121.546 1.37064 121.892 1.37064C122.238 1.37064 122.38 1.37359 122.207 1.37718ZM79.3475 1.38791C79.3475 1.4068 78.409 1.44636 77.97 1.446C77.4791 1.44558 77.4816 1.44461 78.0354 1.42082L78.6112 1.39608L77.5319 1.39109C76.5841 1.3867 76.6289 1.38582 77.9 1.38384C78.6963 1.38259 79.3475 1.38442 79.3475 1.38791ZM80.538 1.3894C80.4544 1.39371 80.2372 1.39418 80.0557 1.39043C79.8548 1.38629 79.9144 1.38321 80.2077 1.38259C80.4731 1.38203 80.6216 1.3851 80.538 1.3894ZM95.9625 1.39454C95.9625 1.40167 96.0826 1.40751 96.2291 1.40751C96.3757 1.40751 96.4258 1.40167 96.3402 1.39454C96.2546 1.3874 96.1347 1.38157 96.0736 1.38157C96.0124 1.38157 95.9625 1.3874 95.9625 1.39454ZM174.69 1.3894C174.606 1.39371 174.389 1.39418 174.208 1.39043C174.007 1.38629 174.066 1.38321 174.36 1.38259C174.625 1.38203 174.773 1.3851 174.69 1.3894ZM176.583 1.39015C176.41 1.39376 176.127 1.39376 175.954 1.39015C175.781 1.38656 175.922 1.38362 176.269 1.38362C176.615 1.38362 176.756 1.38656 176.583 1.39015ZM68.4543 1.40237C68.3708 1.40668 68.1535 1.40715 67.972 1.4034C67.7711 1.39926 67.8308 1.39619 68.1241 1.39556C68.3894 1.39501 68.5379 1.39807 68.4543 1.40237ZM75.5137 1.40995C75.4588 1.41842 75.2637 1.42793 75.08 1.43108C74.8922 1.43431 74.8182 1.43082 74.9108 1.42309C75.0032 1.41539 74.8255 1.40689 74.5052 1.40372C74.0992 1.3997 74.1767 1.39756 74.7741 1.3963C75.3216 1.39515 75.5787 1.3999 75.5137 1.40995ZM83.5013 1.42048C83.4096 1.43536 83.456 1.44643 83.6103 1.44643C83.758 1.44643 83.8789 1.45129 83.8789 1.45723C83.8789 1.47408 82.8553 1.46603 82.632 1.44741C82.4774 1.43453 82.3105 1.43414 81.8919 1.44569C81.5943 1.45389 81.2285 1.4567 81.0788 1.45193C80.7767 1.4423 82.4757 1.39726 83.2035 1.39559C83.5496 1.3948 83.6221 1.40086 83.5013 1.42048ZM131.081 1.40751C131.166 1.41465 131.116 1.42048 130.97 1.42048C130.823 1.42048 130.703 1.41465 130.703 1.40751C130.703 1.40038 130.753 1.39454 130.814 1.39454C130.875 1.39454 130.995 1.40038 131.081 1.40751ZM133.472 1.40026C133.472 1.40341 133.359 1.40959 133.22 1.414C133.082 1.41841 132.969 1.41583 132.969 1.40828C132.969 1.40073 133.082 1.39454 133.22 1.39454C133.359 1.39454 133.472 1.39711 133.472 1.40026ZM170.294 1.40305C170.124 1.4066 169.784 1.40682 169.539 1.40353C169.294 1.40023 169.434 1.39733 169.849 1.39707C170.264 1.39681 170.465 1.39949 170.294 1.40305ZM171.669 1.40237C171.585 1.40668 171.368 1.40715 171.187 1.4034C170.986 1.39926 171.045 1.39619 171.339 1.39556C171.604 1.39501 171.753 1.39807 171.669 1.40237ZM72.1728 1.42048C72.2584 1.42762 72.2083 1.43346 72.0618 1.43346C71.9153 1.43346 71.7952 1.42762 71.7952 1.42048C71.7952 1.41335 71.8451 1.40751 71.9062 1.40751C71.9674 1.40751 72.0872 1.41335 72.1728 1.42048ZM101.936 1.41535C101.853 1.41965 101.635 1.42012 101.454 1.41637C101.253 1.41223 101.313 1.40916 101.606 1.40854C101.871 1.40798 102.02 1.41104 101.936 1.41535ZM103.195 1.41535C103.111 1.41965 102.894 1.42012 102.713 1.41637C102.512 1.41223 102.571 1.40916 102.865 1.40854C103.13 1.40798 103.278 1.41104 103.195 1.41535ZM105.529 1.42697C105.529 1.43767 105.642 1.44643 105.781 1.44643C105.919 1.44643 106.032 1.43914 106.032 1.43021C106.031 1.41817 106.584 1.41509 108.175 1.4182C109.471 1.42074 110.259 1.42736 110.168 1.43495C110.086 1.44184 109.818 1.44421 109.574 1.44021C109.329 1.43622 108.801 1.4418 108.399 1.45259C107.752 1.46997 107.659 1.47 107.587 1.45284C107.496 1.43117 106.4 1.42626 106.158 1.44643C105.989 1.4605 104.951 1.46424 104.707 1.45164C104.462 1.43902 104.798 1.40751 105.178 1.40751C105.371 1.40751 105.529 1.41627 105.529 1.42697ZM128.689 1.42697C128.424 1.44344 128.479 1.44643 129.051 1.44643C129.437 1.44643 129.659 1.45198 129.57 1.4594C129.485 1.46653 129.176 1.47237 128.884 1.47237C128.592 1.47237 128.434 1.47655 128.533 1.48165C128.632 1.48675 129.63 1.48912 130.751 1.48694C132.571 1.48339 132.771 1.48528 132.627 1.5047C132.52 1.51899 132.573 1.52439 132.78 1.52049C132.953 1.5172 133.066 1.50797 133.032 1.49994C132.997 1.49191 133.259 1.48534 133.613 1.48534C133.978 1.48534 134.19 1.49096 134.102 1.49832C134.016 1.50545 134.066 1.51129 134.213 1.51129C134.359 1.51129 134.479 1.50545 134.479 1.49832C134.479 1.47673 135.421 1.48379 135.591 1.50666C135.678 1.51838 135.712 1.52993 135.666 1.53232C135.619 1.53469 134.465 1.53823 133.101 1.54018C131.289 1.54276 130.591 1.53935 130.514 1.5275C130.457 1.51859 130.185 1.51129 129.912 1.51129C129.638 1.51129 129.485 1.51713 129.57 1.52426C129.661 1.53182 129.405 1.53723 128.956 1.53723C128.532 1.53723 128.186 1.5314 128.186 1.52426C128.186 1.51713 127.766 1.51129 127.254 1.51129C126.236 1.51129 126.366 1.49055 127.43 1.4832C127.904 1.47994 128.079 1.47001 128.139 1.44318C128.188 1.42131 128.371 1.40751 128.611 1.40751C128.931 1.40751 128.945 1.41109 128.689 1.42697ZM153.738 1.43743C154.014 1.44115 153.703 1.4436 153.045 1.44289C152.388 1.44217 151.849 1.43644 151.849 1.43016C151.849 1.42387 152.09 1.42268 152.384 1.42749C152.794 1.43417 152.871 1.43209 152.714 1.41863C152.552 1.40479 152.586 1.40419 152.871 1.41584C153.071 1.424 153.461 1.4337 153.738 1.43743ZM122.27 1.43346C122.184 1.44059 122.008 1.44643 121.877 1.44643C121.747 1.44643 121.64 1.44059 121.64 1.43346C121.64 1.42632 121.817 1.42048 122.033 1.42048C122.249 1.42048 122.355 1.42632 122.27 1.43346ZM95.4591 1.44643C95.9472 1.46268 96.2143 1.46268 96.2143 1.44643C96.2143 1.43929 95.9593 1.43355 95.6479 1.43365C95.1899 1.43382 95.1537 1.43626 95.4591 1.44643ZM119.123 1.45206C119.123 1.46259 119.423 1.47263 119.815 1.47521C120.371 1.47887 120.302 1.481 119.469 1.48599C118.522 1.49166 118.431 1.48961 118.431 1.46284C118.431 1.44656 118.585 1.43346 118.777 1.43346C118.967 1.43346 119.123 1.44182 119.123 1.45206ZM126.927 1.4445C126.927 1.45101 126.472 1.45666 125.915 1.45707C125.358 1.45745 124.954 1.45352 125.016 1.44834C125.185 1.43425 126.927 1.43074 126.927 1.4445ZM48.509 1.4594C48.5946 1.46653 48.4879 1.47237 48.2721 1.47237C48.0564 1.47237 47.8797 1.46653 47.8797 1.4594C47.8797 1.45227 47.9861 1.44643 48.1165 1.44643C48.2469 1.44643 48.4234 1.45227 48.509 1.4594ZM98.48 1.46017C98.48 1.46772 98.3541 1.46989 98.2 1.46499C98.0462 1.46009 97.8214 1.46412 97.7006 1.47395C97.5266 1.48809 97.4798 1.48708 97.4768 1.46913C97.4745 1.45502 97.6633 1.44643 97.9765 1.44643C98.2534 1.44643 98.48 1.45262 98.48 1.46017ZM102.004 1.45616C102.004 1.4615 101.732 1.46589 101.399 1.46589C101.066 1.46589 100.846 1.4615 100.911 1.45616C100.975 1.45081 101.247 1.44643 101.516 1.44643C101.785 1.44643 102.004 1.45081 102.004 1.45616ZM149.961 1.4594C149.876 1.46653 149.558 1.47196 149.254 1.47146C148.723 1.47058 148.721 1.47015 149.206 1.4594C149.899 1.44405 150.145 1.44405 149.961 1.4594ZM168.464 1.4594C168.464 1.46653 168.72 1.47246 169.031 1.47257C169.342 1.47268 169.767 1.47843 169.975 1.48534C170.253 1.49462 170.055 1.49864 169.22 1.50065C168.597 1.50216 167.69 1.5057 167.206 1.50851C166.721 1.51134 162.416 1.51536 157.64 1.51745C152.863 1.51954 149.634 1.51689 150.465 1.51156C151.296 1.50624 152.542 1.49825 153.234 1.49382C155.894 1.47678 159.12 1.47235 159.278 1.48549C159.365 1.49278 159.553 1.49503 159.695 1.49051C159.837 1.48599 160.218 1.48959 160.542 1.49851C160.865 1.50744 161.336 1.5105 161.588 1.50531C161.839 1.50012 162.859 1.49485 163.854 1.49361C164.849 1.49236 165.737 1.48752 165.827 1.48285C165.918 1.4782 166.378 1.47761 166.851 1.48156C167.534 1.48726 167.709 1.48441 167.709 1.46759C167.709 1.45595 167.879 1.44643 168.087 1.44643C168.295 1.44643 168.464 1.45227 168.464 1.4594ZM175.87 1.46264C175.987 1.47562 176.046 1.47562 176.164 1.46264C176.322 1.44521 178.423 1.43966 178.621 1.45616C178.685 1.4615 178.239 1.46384 177.629 1.46133C176.937 1.45849 176.52 1.46215 176.52 1.47106C176.52 1.4927 175.336 1.48816 175.17 1.46589C174.994 1.44223 175.657 1.43915 175.87 1.46264ZM117.487 1.47237C117.401 1.47951 117.026 1.48493 116.654 1.48444C116.049 1.48362 116.03 1.48232 116.48 1.47237C117.179 1.45688 117.672 1.45688 117.487 1.47237ZM141.15 1.47237C141.065 1.47951 141.228 1.48534 141.513 1.48534C141.798 1.48534 142.031 1.47951 142.031 1.47237C142.031 1.45705 142.519 1.46052 142.934 1.47878C143.314 1.49553 142.021 1.52509 141.321 1.51566C141.051 1.51202 140.753 1.51538 140.661 1.52313C140.567 1.53089 140.321 1.53723 140.114 1.53723C139.906 1.53723 139.812 1.53094 139.904 1.52326C140.02 1.51359 139.715 1.51204 138.912 1.51824C138.208 1.52368 137.752 1.52224 137.752 1.51457C137.752 1.50763 138.401 1.49849 139.195 1.49427C139.989 1.49005 140.678 1.48048 140.727 1.473C140.775 1.46552 140.925 1.4594 141.06 1.4594C141.195 1.4594 141.236 1.46524 141.15 1.47237ZM148.348 1.47136C148.153 1.47773 147.66 1.48077 147.252 1.47811C146.682 1.47438 146.482 1.47913 146.382 1.49877C146.311 1.51279 146.156 1.52426 146.038 1.52426C145.766 1.52426 146.059 1.48202 146.419 1.46932C146.567 1.46408 147.142 1.4598 147.696 1.4598C148.383 1.4598 148.59 1.46347 148.348 1.47136ZM59.7116 1.48383C59.7116 1.49928 58.7383 1.51161 58.5775 1.49821C58.5072 1.49235 58.5921 1.48461 58.766 1.48099C59.2816 1.47027 59.7116 1.47157 59.7116 1.48383ZM62.9842 1.48534C62.9842 1.49248 62.8777 1.49832 62.7473 1.49832C62.6169 1.49832 62.4405 1.49248 62.3549 1.48534C62.2693 1.47821 62.376 1.47237 62.5918 1.47237C62.8075 1.47237 62.9842 1.47821 62.9842 1.48534ZM67.5156 1.48393C67.5156 1.50354 65.6774 1.50772 65.005 1.48964C64.4159 1.4738 64.4854 1.47253 65.9422 1.47245C66.8077 1.47241 67.5156 1.47757 67.5156 1.48393ZM68.2897 1.48891C68.2585 1.50443 67.9134 1.50142 67.8051 1.4847C67.7497 1.47613 67.8403 1.47146 68.0065 1.47432C68.1726 1.47717 68.3 1.48374 68.2897 1.48891ZM70.5189 1.52977C70.5285 1.53638 70.3266 1.53054 70.0698 1.5168C69.7533 1.49987 69.6924 1.48885 69.881 1.48258C70.133 1.47418 70.4741 1.49941 70.5189 1.52977ZM72.6557 1.48025C73.168 1.49038 73.172 1.51129 72.6615 1.51129C72.4457 1.51129 72.3347 1.51678 72.4153 1.52347C72.4956 1.53018 72.333 1.53478 72.0538 1.53369C71.5317 1.53167 71.4503 1.50012 71.9211 1.4823C72.2295 1.47062 72.1764 1.47076 72.6557 1.48025ZM171.485 1.48534C171.485 1.49248 171.287 1.49823 171.045 1.49812C170.668 1.49795 170.659 1.49609 170.982 1.48534C171.457 1.46952 171.485 1.46952 171.485 1.48534ZM75.2036 1.50554C74.5596 1.51916 74.5254 1.52219 74.9518 1.52776C75.3508 1.53299 75.3244 1.53451 74.8139 1.53573C74.4493 1.5366 74.0602 1.52717 73.8938 1.51346C73.6297 1.49166 73.7039 1.48968 74.7774 1.48973C75.9382 1.48978 75.9419 1.48992 75.2036 1.50554ZM78.664 1.5205C78.7655 1.54784 78.7058 1.55135 78.2466 1.54499C77.9521 1.54092 77.258 1.53732 76.7042 1.53701C75.8893 1.53656 75.7823 1.53389 76.1431 1.52307C76.3883 1.51571 76.5257 1.50443 76.4484 1.49798C76.3712 1.49155 76.8115 1.4868 77.4267 1.48743C78.4072 1.48844 78.5603 1.49253 78.664 1.5205ZM86.0612 1.51859C86.3228 1.53701 86.4655 1.53885 86.6994 1.5268C87.1186 1.50521 87.655 1.50741 87.655 1.53075C87.655 1.54591 87.3353 1.54999 86.2075 1.54918C85.4112 1.54862 84.9017 1.54521 85.0747 1.54162C85.8148 1.52622 85.2879 1.51129 84.0048 1.51129C82.5071 1.51129 82.1043 1.53229 83.4383 1.54083C83.9471 1.54407 83.7147 1.54683 82.8238 1.54813C82.0198 1.5493 81.3169 1.54402 81.222 1.5361C81.1002 1.52595 80.9763 1.52595 80.7792 1.5361C80.6286 1.54386 80.3356 1.55021 80.1279 1.55021C79.8487 1.55021 79.8241 1.5464 80.0328 1.53565C80.1881 1.52765 80.2525 1.51268 80.1758 1.50238C80.0579 1.48655 80.4761 1.48453 82.8805 1.48926C85.267 1.49396 85.7788 1.49867 86.0612 1.51859ZM91.6817 1.51453C91.6837 1.52902 89.9751 1.52631 89.7979 1.51154C89.7057 1.50387 90.0489 1.5 90.6628 1.50181C91.2225 1.50345 91.6809 1.50919 91.6817 1.51453ZM100.746 1.51052C100.746 1.51724 100.633 1.52632 100.495 1.53072C100.055 1.54471 93.2553 1.53828 92.6899 1.52335C92.4024 1.51576 95.5207 1.5024 98.0394 1.50043C99.5917 1.49922 100.746 1.50352 100.746 1.51052ZM111.786 1.51805C112.051 1.53172 111.575 1.53635 109.227 1.54293C106.819 1.54969 104.27 1.53316 104.27 1.5108C104.27 1.49939 111.56 1.50644 111.786 1.51805ZM120.759 1.52379C119.135 1.53127 117.914 1.52577 118.319 1.51279C118.456 1.5084 119.401 1.50751 120.419 1.51082L122.27 1.51684L120.759 1.52379ZM125.165 1.51129C125.165 1.51842 125.115 1.52426 125.054 1.52426C124.993 1.52426 124.873 1.51842 124.787 1.51129C124.702 1.50415 124.752 1.49832 124.898 1.49832C125.045 1.49832 125.165 1.50415 125.165 1.51129ZM130.829 1.51129C130.743 1.51842 130.85 1.52426 131.066 1.52426C131.282 1.52426 131.458 1.51842 131.458 1.51129C131.458 1.50415 131.352 1.49832 131.221 1.49832C131.091 1.49832 130.915 1.50415 130.829 1.51129ZM183.019 1.50718C183.2 1.51093 183.417 1.51046 183.501 1.50615C183.584 1.50185 183.436 1.49878 183.171 1.49934C182.877 1.49996 182.818 1.50304 183.019 1.50718ZM124.046 1.52304C123.969 1.5295 123.679 1.53175 123.402 1.52801C122.709 1.51868 122.772 1.51129 123.543 1.51129C123.897 1.51129 124.124 1.51658 124.046 1.52304ZM137.06 1.51988C136.887 1.52348 136.603 1.52348 136.43 1.51988C136.257 1.51628 136.399 1.51334 136.745 1.51334C137.091 1.51334 137.233 1.51628 137.06 1.51988ZM148.64 1.51988C148.467 1.52348 148.184 1.52348 148.01 1.51988C147.837 1.51628 147.979 1.51334 148.325 1.51334C148.671 1.51334 148.813 1.51628 148.64 1.51988ZM181.178 1.57615C181.263 1.58328 181.383 1.58912 181.444 1.58912C181.505 1.58912 181.555 1.58328 181.555 1.57615C181.555 1.56902 181.435 1.56318 181.289 1.56318C181.142 1.56318 181.092 1.56902 181.178 1.57615ZM187.802 1.57204C187.983 1.57579 188.2 1.57532 188.284 1.57101C188.368 1.56671 188.219 1.56364 187.954 1.5642C187.66 1.56483 187.601 1.5679 187.802 1.57204ZM84.8854 1.73506C84.8856 1.7404 82.5917 1.7437 79.7881 1.74238C76.2591 1.7407 75.3488 1.73771 76.8301 1.73265C79.9039 1.72214 84.8848 1.72363 84.8854 1.73506ZM87.4033 1.73982C87.4033 1.74254 86.8653 1.7441 86.2075 1.74326C85.1791 1.74193 85.1175 1.74048 85.767 1.73288C86.4726 1.72462 87.4033 1.72857 87.4033 1.73982ZM74.3756 1.7404C74.2026 1.74401 73.9194 1.74401 73.7462 1.7404C73.5733 1.73681 73.7148 1.73387 74.0609 1.73387C74.4071 1.73387 74.5488 1.73681 74.3756 1.7404ZM51.5921 1.76806C51.7666 1.77398 50.7337 1.77915 49.2665 1.77971C47.8147 1.78027 46.6725 1.77692 46.7284 1.77226C46.881 1.75955 51.2301 1.7558 51.5921 1.76806ZM166.655 1.77959C166.837 1.78334 167.054 1.78287 167.138 1.77857C167.221 1.77426 167.073 1.7712 166.807 1.77176C166.514 1.77238 166.454 1.77545 166.655 1.77959ZM148.257 1.79154C148.173 1.79585 147.956 1.79631 147.774 1.79256C147.574 1.78843 147.633 1.78535 147.927 1.78473C148.192 1.78417 148.34 1.78723 148.257 1.79154ZM60.7676 1.81933C62.2484 1.82161 64.7406 1.82162 66.306 1.81934C67.8713 1.81706 66.6597 1.81519 63.6136 1.81518C60.5675 1.81516 59.2869 1.81703 60.7676 1.81933ZM83.3296 1.82545C83.4638 1.83236 83.784 1.83574 84.041 1.83292C84.3872 1.82915 84.3237 1.82588 83.7968 1.82035C83.3374 1.81551 83.172 1.81733 83.3296 1.82545ZM161.369 1.81851C161.55 1.82226 161.767 1.82179 161.851 1.81748C161.935 1.81318 161.786 1.81012 161.521 1.81067C161.227 1.8113 161.168 1.81437 161.369 1.81851ZM85.3294 1.83179C85.6426 1.83489 86.0957 1.83478 86.3364 1.83153C86.5771 1.82829 86.3208 1.82575 85.767 1.82589C85.2131 1.82603 85.0163 1.82869 85.3294 1.83179ZM88.8538 1.83179C89.167 1.83489 89.6201 1.83478 89.8608 1.83153C90.1015 1.82829 89.8452 1.82575 89.2914 1.82589C88.7375 1.82603 88.5407 1.82869 88.8538 1.83179ZM96.6594 1.83203C97.1118 1.83491 97.7915 1.83485 98.1698 1.8319C98.5482 1.82893 98.1779 1.82656 97.3471 1.82664C96.5164 1.82671 96.207 1.82913 96.6594 1.83203ZM100.309 1.83194C100.691 1.83491 101.258 1.83483 101.567 1.83175C101.877 1.82868 101.564 1.82624 100.872 1.82633C100.179 1.82643 99.926 1.82895 100.309 1.83194ZM133.283 1.83156C133.526 1.83483 133.922 1.83483 134.165 1.83156C134.407 1.8283 134.209 1.82563 133.724 1.82563C133.239 1.82563 133.041 1.8283 133.283 1.83156ZM137.437 1.83121C137.61 1.83482 137.894 1.83482 138.067 1.83121C138.24 1.82762 138.098 1.82467 137.752 1.82467C137.406 1.82467 137.264 1.82762 137.437 1.83121Z" fill="#9C0808"/>
</svg>
