<svg width="75" height="75" viewBox="0 0 75 75" fill="none" xmlns="http://www.w3.org/2000/svg">
<path d="M15.5 50H2C1.44771 50 1 49.5523 1 49V2C1 1.44771 1.44772 1 2 1H73C73.5523 1 74 1.44772 74 2V49C74 49.5523 73.5523 50 73 50H59H58M58 50V54V54C58 54.2761 57.7761 54.5 57.5 54.5V54.5M58 50V41M21 74H24.5C25.0523 74 25.5 73.5523 25.5 73V55.5C25.5 54.9477 25.9477 54.5 26.5 54.5H48.5C49.0523 54.5 49.5 54.9477 49.5 55.5V73C49.5 73.5523 49.9477 74 50.5 74H51.75M21 74V55.5C21 54.9477 20.5523 54.5 20 54.5V54.5M21 74H51.75M25 36H13C12.4477 36 12 36.4477 12 37V39.5C12 40.0523 12.4477 40.5 13 40.5H16C16.2761 40.5 16.5 40.7239 16.5 41V41V53.5C16.5 54.0523 16.9477 54.5 17.5 54.5H20M25 36V31V30.3028C25 30.1054 25.0584 29.9123 25.1679 29.7481L25.8891 28.6664C25.9623 28.5566 26.0566 28.4623 26.1664 28.3891L27.2481 27.6679C27.4123 27.5584 27.6054 27.5 27.8028 27.5H30H46.7639C46.9192 27.5 47.0723 27.5361 47.2111 27.6056L48.7625 28.3812C48.9181 28.4591 49.0508 28.5762 49.1473 28.721L49.8321 29.7481C49.9416 29.9123 50 30.1054 50 30.3028V31.5V35.5V35.5C50 35.7761 49.7761 36 49.5 36V36M25 36H29M45.5 36V31.5M45.5 36H29M45.5 36H49.5M29 36V31.5M49.5 36H50.5H51H61.5C62.0523 36 62.5 36.4477 62.5 37V40C62.5 40.5523 62.0523 41 61.5 41H58.5M58 41H20.5H58.5M58 41H58.5M57.5 54.5H55C54.4477 54.5 54 54.9477 54 55.5V73C54 73.5523 53.5523 74 53 74H51.75M57.5 54.5H20" stroke="white" stroke-width="2"/>
<circle cx="37.5" cy="18.5" r="5.5" stroke="white" stroke-width="2"/>
</svg>
