<svg width="101" height="78" viewBox="0 0 101 78" fill="none" xmlns="http://www.w3.org/2000/svg">
<path d="M71.5354 56.416C71.5354 56.416 64.5355 56.9156 63.0354 56.416C61.5354 55.9163 59.7233 53.6716 60.0354 51.416C60.3824 48.9079 64.981 48.2254 66.7829 48.0536C67.2119 48.0127 67.5742 47.7168 67.728 47.3141C70.421 40.2624 80.6551 43.7233 79.5 49.5" stroke="white" stroke-width="2" stroke-linecap="round"/>
<path d="M35.501 37C35.501 37 35.502 38.5 35.501 43C35.5 47.5 49.502 47 49.501 43C49.5 39 45 39.5 45.001 36.5" stroke="white" stroke-width="2"/>
<path d="M13 36C10.9829 39.9372 9.36458 41.1255 6 42" stroke="white" stroke-width="2"/>
<path d="M89.0833 19.0834V34.25M89.0833 34.25V34.4241C89.0833 34.689 88.9932 34.9461 88.8277 35.1529L87.0057 37.4305C86.8402 37.6373 86.75 37.8944 86.75 38.1593V41.8334C86.75 42.4777 87.2723 43 87.9167 43H90.8333C91.4777 43 92 42.4777 92 41.8334V38.9167V38.1593C92 37.8944 91.9098 37.6373 91.7443 37.4305L89.6667 34.8334L89.0833 34.25Z" stroke="white" stroke-width="2.33333"/>
<path d="M49.4167 19.6667L41.128 16.0629C39.227 15.2364 39.2671 12.5265 41.1918 11.7566L67.2245 1.34353C67.7762 1.12286 68.3912 1.12097 68.9443 1.33822L95.5596 11.7942C97.4869 12.5514 97.5463 15.2572 95.654 16.0982L85.4525 20.6322C85.1542 20.7648 84.8313 20.8333 84.5048 20.8333H83.25M83.25 20.8333V16.4083C83.25 15.8801 83.0402 15.3735 82.6667 15V15L82.1834 14.5168C81.7458 14.0792 81.1523 13.8333 80.5335 13.8333H80.3333H79.1667H63.4167H58.1667H57.5833H57H56.3842C56.0219 13.8333 55.6647 13.9177 55.3407 14.0797L55.0053 14.2473C54.781 14.3595 54.5763 14.5071 54.3989 14.6844L54.3511 14.7323C54.1737 14.9096 54.0262 15.1144 53.914 15.3387L53.7463 15.674C53.5843 15.998 53.5 16.3553 53.5 16.7175V22V23.1667M83.25 20.8333V23.1667M83.25 23.1667V25.5C83.25 26.7887 82.2053 27.8333 80.9167 27.8333H55.8333C54.5447 27.8333 53.5 26.7887 53.5 25.5V23.1667M83.25 23.1667H53.5" stroke="white" stroke-width="2.33333"/>
<line x1="4" y1="71" x2="13" y2="71" stroke="white" stroke-width="2" stroke-linecap="round"/>
<line x1="1" y1="77" x2="6" y2="77" stroke="white" stroke-width="2" stroke-linecap="round"/>
<line x1="12" y1="77" x2="22" y2="77" stroke="white" stroke-width="2" stroke-linecap="round"/>
<line x1="58" y1="77" x2="67" y2="77" stroke="white" stroke-width="2" stroke-linecap="round"/>
<line x1="68" y1="72" x2="82" y2="72" stroke="white" stroke-width="2" stroke-linecap="round"/>
<line x1="1" y1="36" x2="19" y2="36" stroke="white" stroke-width="2" stroke-linecap="round"/>
<line x1="25" y1="36" x2="83" y2="36" stroke="white" stroke-width="2" stroke-linecap="round"/>
<line x1="79" y1="41" x2="79" y2="37" stroke="white" stroke-width="2" stroke-linecap="round"/>
<path d="M5.49827 36.9413C5.46584 36.3899 4.99261 35.9693 4.44128 36.0017C3.88995 36.0342 3.46929 36.5074 3.50173 37.0587L5.49827 36.9413ZM70.1919 62.222C70.5906 61.8399 70.6041 61.2068 70.222 60.8081C69.8399 60.4094 69.2068 60.3959 68.8081 60.778L70.1919 62.222ZM33.5 60L32.9157 60.8116L32.9157 60.8116L33.5 60ZM50 57L50.1109 56.0062L50 57ZM58 63.5L58.735 62.8219L58 63.5ZM3.50173 37.0587C5.5562 71.9847 45.6307 85.7598 70.1919 62.222L68.8081 60.778C45.3693 83.2402 7.4438 70.0153 5.49827 36.9413L3.50173 37.0587ZM8.20282 52.9994C11.8019 53.1279 14.1175 52.503 15.585 51.2845C17.0725 50.0495 17.4803 48.3752 17.6793 46.9725C17.7294 46.6194 17.7678 46.2696 17.8036 45.9452C17.8402 45.6148 17.874 45.3121 17.9163 45.0251C18.0025 44.4395 18.1124 44.015 18.2783 43.7057C18.4252 43.432 18.6199 43.2389 18.9514 43.1109C19.3179 42.9694 19.9147 42.8849 20.8889 42.9938L21.1111 41.0062C19.9653 40.8781 19.0107 40.9441 18.2309 41.2452C17.416 41.5599 16.8693 42.1017 16.516 42.7601C16.1818 43.383 16.0328 44.0878 15.9376 44.7336C15.8892 45.0623 15.8517 45.4008 15.8158 45.7253C15.7792 46.0557 15.7441 46.3744 15.6991 46.6916C15.5177 47.9699 15.2002 49.0045 14.3074 49.7458C13.3947 50.5036 11.6751 51.1221 8.2742 51.0006L8.20282 52.9994ZM20.8889 42.9938C22.7185 43.1983 23.9306 44.0057 24.8575 45.1909C25.8203 46.4222 26.4838 48.0724 27.1205 49.9732C27.7382 51.817 28.3386 53.9297 29.1678 55.8116C30.0074 57.7171 31.1373 59.5312 32.9157 60.8116L34.0843 59.1884C32.7143 58.2022 31.7675 56.7515 30.998 55.0052C30.2182 53.2352 29.6772 51.3089 29.017 49.3379C28.3758 47.4238 27.625 45.4832 26.4329 43.9589C25.2049 42.3885 23.5216 41.2756 21.1111 41.0062L20.8889 42.9938ZM32.9157 60.8116C33.5705 61.2829 34.0841 61.6446 34.737 61.8282C35.3552 62.002 36.0503 62 37 62V60C35.9497 60 35.5718 59.9854 35.2784 59.9029C35.0198 59.8301 34.7835 59.6918 34.0843 59.1884L32.9157 60.8116ZM37 62C37.4113 62 37.8498 61.8891 38.2528 61.7566C38.6714 61.619 39.1346 61.4293 39.6179 61.2169C40.1029 61.0037 40.631 60.7573 41.1775 60.503C41.7279 60.247 42.302 59.9804 42.8952 59.7186C45.3225 58.6472 47.8433 57.7655 49.8891 57.9938L50.1109 56.0062C47.4671 55.7111 44.4879 56.8294 42.0876 57.8889C41.4739 58.1597 40.8832 58.4341 40.3338 58.6897C39.7806 58.9471 39.2743 59.1832 38.8131 59.3859C38.3503 59.5894 37.9557 59.749 37.6282 59.8567C37.2849 59.9695 37.0887 60 37 60V62ZM49.8891 57.9938C51.9356 58.2222 52.9318 58.8852 53.8066 59.8451C54.2816 60.3663 54.7172 60.9721 55.2719 61.722C55.8156 62.457 56.4459 63.2902 57.265 64.1781L58.735 62.8219C57.9917 62.0162 57.4134 61.254 56.8798 60.5326C56.3571 59.826 55.8467 59.1144 55.2848 58.4979C54.0858 57.1823 52.6444 56.2889 50.1109 56.0062L49.8891 57.9938ZM57.265 64.1781C58.3227 65.3247 59.7491 66.0202 60.9843 66.4298C62.2183 66.839 63.3758 67 64 67V65C63.6242 65 62.6804 64.8851 61.6138 64.5314C60.5482 64.1781 59.4746 63.6237 58.735 62.8219L57.265 64.1781Z" fill="white"/>
<path d="M79.5 50C84.5 48.4999 87 56.5 81.5 56.5C76 56.5 75.5 56.5 75.5 56.5" stroke="white" stroke-width="2" stroke-linecap="round"/>
</svg>
